<?xml version="1.0" encoding="UTF-8"?>
<svg version="1.1" xmlns="http://www.w3.org/2000/svg" width="266" height="148">
<path d="M0 0 C87.78 0 175.56 0 266 0 C266 48.84 266 97.68 266 148 C178.22 148 90.44 148 0 148 C0 99.16 0 50.32 0 0 Z " fill="#FCFDFE" transform="translate(0,0)"/>
<path d="M0 0 C4.79676025 2.90493455 9.6981979 7.39659948 11.23046875 12.8984375 C12.42162161 22.23147051 12.04956151 29.58423913 6.5625 37.5 C4 40 4 40 1.5625 41.5 C0.94375 41.891875 0.325 42.28375 -0.3125 42.6875 C-7.07164626 45.27187945 -15.37973117 45.76528365 -22.0625 43 C-27.71423632 39.29804684 -32.39427952 33.96540189 -34.4375 27.5 C-35.50231863 19.68791719 -34.9729046 13.21151866 -30.3828125 6.66796875 C-22.57389737 -2.03473787 -10.95924697 -4.72418025 0 0 Z " fill="#05A5DE" transform="translate(231.4375,97.5)"/>
<path d="M0 0 C0 4.29 0 8.58 0 13 C-1.32 12.67 -2.64 12.34 -4 12 C-11.68219104 11.18283383 -11.68219104 11.18283383 -18.6875 13.875 C-21.52425087 17.70844713 -21.57804271 19.95209497 -21.40625 24.59765625 C-20.97705572 27.13568011 -20.38010788 28.83192512 -19 31 C-15.41527958 33.38981361 -13.74646235 33.24010257 -9.5 33.1875 C-7.78296875 33.17783203 -7.78296875 33.17783203 -6.03125 33.16796875 C-2.95377899 33.13084584 -2.95377899 33.13084584 0 32 C0 35.96 0 39.92 0 44 C-7.51047951 46.55675898 -13.79447333 47.31209476 -21.1875 43.9375 C-27.53697783 40.45170579 -31.75268901 35.93255311 -34 29 C-35.02841457 20.90123526 -34.76177575 13.92066535 -29.9453125 7.1328125 C-21.68685655 -1.9216392 -11.58279941 -2.89569985 0 0 Z " fill="#0DA7DE" transform="translate(185,96)"/>
<path d="M0 0 C1.79824219 0.02320312 1.79824219 0.02320312 3.6328125 0.046875 C6.875 0.25 6.875 0.25 10.875 1.25 C10.875 5.54 10.875 9.83 10.875 14.25 C9.885 13.92 8.895 13.59 7.875 13.25 C0.01702877 12.53954844 0.01702877 12.53954844 -7.25 15 C-10.39012227 18.76814672 -11.125 20.11547622 -11.125 25.1875 C-10.50828254 28.8132565 -9.29027774 31.17590789 -6.2109375 33.4140625 C-0.95000444 35.5223765 5.58511364 35.01329545 10.875 33.25 C10.90186553 35.22909398 10.92133375 37.20828971 10.9375 39.1875 C10.94910156 40.28964844 10.96070313 41.39179688 10.97265625 42.52734375 C10.875 45.25 10.875 45.25 9.875 46.25 C-8.46273242 47.77172359 -8.46273242 47.77172359 -15.49609375 41.89453125 C-20.83875602 36.50062042 -23.18728395 32.03616141 -23.375 24.375 C-23.11487124 15.6866993 -21.75404316 11.1872407 -15.390625 5.01171875 C-10.33778522 1.08270023 -6.38687867 -0.13794554 0 0 Z " fill="#09A6DE" transform="translate(56.125,94.75)"/>
<path d="M0 0 C1.14210938 -0.00257812 2.28421875 -0.00515625 3.4609375 -0.0078125 C6.625 0.125 6.625 0.125 10.625 1.125 C10.625 4.095 10.625 7.065 10.625 10.125 C9.72136719 10.11339844 8.81773437 10.10179688 7.88671875 10.08984375 C6.11748047 10.07630859 6.11748047 10.07630859 4.3125 10.0625 C2.55486328 10.04509766 2.55486328 10.04509766 0.76171875 10.02734375 C-2.40559195 9.97600102 -2.40559195 9.97600102 -5.375 11.125 C-5.23639903 13.08117975 -5.23639903 13.08117975 -4.375 15.125 C-2.26995836 16.34411673 -2.26995836 16.34411673 0.3125 17.125 C10.22428126 20.76924576 10.22428126 20.76924576 13 25.4375 C14.09049842 30.12664321 14.12805946 33.7746825 12.4375 38.3125 C9.83495401 42.35093343 7.18380664 44.60539779 2.625 46.125 C1.14376453 46.2056622 -0.34082204 46.23261193 -1.82421875 46.22265625 C-2.67177734 46.21943359 -3.51933594 46.21621094 -4.39257812 46.21289062 C-5.71418945 46.20032227 -5.71418945 46.20032227 -7.0625 46.1875 C-7.95517578 46.18298828 -8.84785156 46.17847656 -9.76757812 46.17382812 C-11.97008073 46.16205004 -14.17254885 46.14411481 -16.375 46.125 C-16.375 42.495 -16.375 38.865 -16.375 35.125 C-15.055 35.455 -13.735 35.785 -12.375 36.125 C-10.52338271 36.24055812 -8.66767681 36.29987975 -6.8125 36.3125 C-5.38744141 36.33376953 -5.38744141 36.33376953 -3.93359375 36.35546875 C-1.13274757 36.30858888 -1.13274757 36.30858888 1.625 34.125 C1.66789755 32.19390419 1.66789755 32.19390419 0.625 30.125 C-1.71901505 28.97597302 -3.94224308 28.02731353 -6.375 27.125 C-10.93299255 25.15880713 -13.8121793 23.46208118 -16.375 19.125 C-16.89491613 14.35910212 -16.44667869 10.45669181 -14.375 6.125 C-9.80534794 1.38941085 -6.49008106 -0.01458445 0 0 Z " fill="#08A5DE" transform="translate(125.375,95.875)"/>
<path d="M0 0 C1.10114403 3.3034321 1.14027482 5.78035639 1.16113281 9.25976562 C1.17074036 10.55120483 1.1803479 11.84264404 1.19024658 13.17321777 C1.19509345 14.58422672 1.19937255 15.99523772 1.203125 17.40625 C1.20887763 18.85209149 1.21463535 20.29793296 1.22039795 21.74377441 C1.23089708 24.77335973 1.2367474 27.80291858 1.24023438 30.83251953 C1.24572822 34.71656573 1.26977936 38.60026298 1.29820633 42.48419952 C1.31681495 45.46959463 1.32203726 48.45490519 1.32357025 51.44035339 C1.32659948 52.87251196 1.33463714 54.30466894 1.34775543 55.73677063 C1.36478286 57.73785487 1.36109567 59.7390831 1.35644531 61.74023438 C1.36009094 62.87924194 1.36373657 64.01824951 1.36749268 65.19177246 C1 68 1 68 -0.36602783 69.86779785 C-2.70958227 71.49167947 -4.2142671 71.41785993 -7 71 C-8.63198853 69.86779785 -8.63198853 69.86779785 -10 68 C-10.38095093 65.19177246 -10.38095093 65.19177246 -10.38818359 61.74023438 C-10.39764008 60.44879517 -10.40709656 59.15735596 -10.4168396 57.82678223 C-10.41146992 56.41576837 -10.40531697 55.0047573 -10.3984375 53.59375 C-10.40045835 52.14790703 -10.40336988 50.70206506 -10.40713501 49.25622559 C-10.41155789 46.22654513 -10.40512877 43.19713007 -10.39111328 40.16748047 C-10.37402105 36.28337224 -10.38386248 32.39988588 -10.40183067 28.51580048 C-10.4126697 25.53036816 -10.40922171 22.54508336 -10.4014473 19.55964661 C-10.3994456 18.12750678 -10.40190353 16.69535357 -10.40888596 15.26322937 C-10.41650144 13.26207738 -10.40283662 11.26087846 -10.38818359 9.25976562 C-10.38579681 8.12075806 -10.38341003 6.98175049 -10.38095093 5.80822754 C-10 3 -10 3 -8.70620728 1.1204834 C-5.9414415 -0.69516597 -3.20349654 -0.18132999 0 0 Z " fill="#0CA6DE" transform="translate(81,6)"/>
<path d="M0 0 C3.00026257 0.52504595 3.7129246 1.00264116 5.5 3.4375 C5.88095093 6.24572754 5.88095093 6.24572754 5.88818359 9.69726562 C5.89764008 10.98870483 5.90709656 12.28014404 5.9168396 13.61071777 C5.91146992 15.02173163 5.90531697 16.4327427 5.8984375 17.84375 C5.90045835 19.28959297 5.90336988 20.73543494 5.90713501 22.18127441 C5.91155789 25.21095487 5.90512877 28.24036993 5.89111328 31.27001953 C5.87402105 35.15412776 5.88386248 39.03761412 5.90183067 42.92169952 C5.9126697 45.90713184 5.90922171 48.89241664 5.9014473 51.87785339 C5.8994456 53.30999322 5.90190353 54.74214643 5.90888596 56.17427063 C5.91650144 58.17542262 5.90283662 60.17662154 5.88818359 62.17773438 C5.88579681 63.31674194 5.88341003 64.45574951 5.88095093 65.62927246 C5.5 68.4375 5.5 68.4375 4.13198853 70.3013916 C1.76508586 71.94911029 0.3130004 71.92977507 -2.5 71.4375 C-5.69320117 68.2257285 -5.87856406 65.68995821 -5.88818359 61.26367188 C-5.89764008 60.01557739 -5.90709656 58.76748291 -5.9168396 57.48156738 C-5.91146972 56.12312502 -5.90531673 54.76468556 -5.8984375 53.40625 C-5.90045927 52.00907235 -5.90337157 50.61189573 -5.90713501 49.21472168 C-5.91155357 46.289367 -5.90514271 43.36428749 -5.89111328 40.43896484 C-5.87402125 36.69285935 -5.883865 32.94739868 -5.90183067 29.20131683 C-5.91268139 26.31706908 -5.90921635 23.43297371 -5.9014473 20.54872131 C-5.89944883 19.16764754 -5.90189217 17.78655983 -5.90888596 16.40550232 C-5.91652067 14.47411368 -5.90281691 12.54267642 -5.88818359 10.61132812 C-5.88579681 9.51308716 -5.88341003 8.41484619 -5.88095093 7.2833252 C-5.33792458 3.22674483 -4.18665616 0.73266483 0 0 Z " fill="#0AA5DE" transform="translate(199.5,5.5625)"/>
<path d="M0 0 C3.63 0 7.26 0 11 0 C11 14.52 11 29.04 11 44 C7.37 44 3.74 44 0 44 C0 29.48 0 14.96 0 0 Z " fill="#01A4DD" transform="translate(83,97)"/>
<path d="M0 0 C3.64331077 1.61924923 6.20425519 3.40851039 8 7 C8.78932297 11.06501329 8.91425884 14.49301066 6.72265625 18.10546875 C3.4040052 22.04078845 1.52534226 23.84746577 -3.75 24.375 C-7.02646841 24.33925671 -8.81497451 23.80558697 -11.375 21.75 C-14.59304578 18.37871394 -15.7772529 16.70772777 -16.375 12.125 C-15.80456791 7.37139923 -13.45137487 4.55504451 -10.25 1.125 C-6.87969757 -0.56015122 -3.64934342 -0.53795102 0 0 Z " fill="#F8FBFD" transform="translate(224,107)"/>
<path d="M0 0 C2.375 -0.4375 2.375 -0.4375 5 0 C7.13745117 1.55395508 7.13745117 1.55395508 9 4 C9.36180726 6.66947978 9.49248881 8.91456892 9.42578125 11.57421875 C9.42249313 12.29865677 9.41920502 13.02309479 9.41581726 13.76948547 C9.40542084 15.29506463 9.38551203 16.82060497 9.35668945 18.34594727 C9.31245593 20.68983498 9.29522998 23.03269893 9.28320312 25.37695312 C9.26978528 26.8593899 9.25486402 28.341814 9.23828125 29.82421875 C9.23089432 30.52834396 9.22350739 31.23246918 9.21589661 31.95793152 C9.11832433 36.88167567 9.11832433 36.88167567 8 38 C2.26388889 38.27314815 2.26388889 38.27314815 0 38 C-2.45527179 35.54472821 -2.24542215 34.17124385 -2.27789307 30.81898499 C-2.2738446 30.116884 -2.26979614 29.41478302 -2.265625 28.69140625 C-2.26753845 27.96888168 -2.2694519 27.24635712 -2.27142334 26.50193787 C-2.27278504 24.97288668 -2.26908964 23.44382393 -2.26074219 21.91479492 C-2.25005751 19.57509316 -2.2606295 17.23616193 -2.2734375 14.89648438 C-2.2721156 13.41145664 -2.26955257 11.92642938 -2.265625 10.44140625 C-2.26967346 9.7413295 -2.27372192 9.04125275 -2.27789307 8.31996155 C-2.24257654 4.65626704 -2.08995623 3.13493434 0 0 Z " fill="#0EA7DE" transform="translate(43,27)"/>
<path d="M0 0 C1.63354492 1.05834961 1.63354492 1.05834961 3 3 C3.28595445 5.56383947 3.39698146 7.87969305 3.36328125 10.44140625 C3.36377975 11.16488754 3.36427826 11.88836884 3.36479187 12.6337738 C3.36245389 14.16106925 3.35274153 15.68836872 3.33618164 17.21557617 C3.31255068 19.55747773 3.31562691 21.8982436 3.32226562 24.24023438 C3.31668999 25.72396514 3.30958082 27.2076911 3.30078125 28.69140625 C3.30214836 29.74455772 3.30214836 29.74455772 3.30354309 30.81898499 C3.23104851 35.76895149 3.23104851 35.76895149 1 38 C-2.5 38.25 -2.5 38.25 -6 38 C-8.45095154 35.54904846 -8.25451426 34.16669818 -8.30354309 30.81898499 C-8.30263168 30.116884 -8.30172028 29.41478302 -8.30078125 28.69140625 C-8.30506638 27.96888168 -8.3093515 27.24635712 -8.31376648 26.50193787 C-8.31951237 24.97290088 -8.32000812 23.44383656 -8.31567383 21.91479492 C-8.31251671 19.57488326 -8.33595758 17.23623933 -8.36132812 14.89648438 C-8.36360139 13.41145993 -8.36430449 11.92643208 -8.36328125 10.44140625 C-8.372491 9.7413295 -8.38170074 9.04125275 -8.39118958 8.31996155 C-8.36357767 5.42080119 -8.33029463 3.46932879 -6.63354492 1.05834961 C-4.27828073 -0.46759125 -2.74630996 -0.41194649 0 0 Z " fill="#08A4DD" transform="translate(110,27)"/>
<path d="M0 0 C1.63354492 1.07421875 1.63354492 1.07421875 3 3 C3.37231445 6.23046875 3.37231445 6.23046875 3.36328125 10.1875 C3.36377975 10.88641357 3.36427826 11.58532715 3.36479187 12.30541992 C3.36245392 13.78144172 3.35274165 15.25746769 3.33618164 16.73339844 C3.31258464 18.99189933 3.3156227 21.24921962 3.32226562 23.5078125 C3.27922768 34.58115848 3.27922768 34.58115848 1 38 C-2.5 38.3125 -2.5 38.3125 -6 38 C-8.45095154 35.54904846 -8.25451426 34.16669818 -8.30354309 30.81898499 C-8.30263168 30.116884 -8.30172028 29.41478302 -8.30078125 28.69140625 C-8.30506638 27.96888168 -8.3093515 27.24635712 -8.31376648 26.50193787 C-8.31951237 24.97290088 -8.32000812 23.44383656 -8.31567383 21.91479492 C-8.31251671 19.57488326 -8.33595758 17.23623933 -8.36132812 14.89648438 C-8.36360139 13.41145993 -8.36430449 11.92643208 -8.36328125 10.44140625 C-8.372491 9.7413295 -8.38170074 9.04125275 -8.39118958 8.31996155 C-8.36357767 5.42080119 -8.33029463 3.46932879 -6.63354492 1.05834961 C-4.27828073 -0.46759125 -2.74630996 -0.41194649 0 0 Z " fill="#07A4DD" transform="translate(233,27)"/>
<path d="M0 0 C1.63134766 1.07421875 1.63134766 1.07421875 3 3 C3.38818359 6.23046875 3.38818359 6.23046875 3.3984375 10.1875 C3.40274277 11.23587036 3.40274277 11.23587036 3.40713501 12.30541992 C3.40917425 13.78142101 3.40365403 15.25744921 3.39111328 16.73339844 C3.3750558 18.99215138 3.3909647 21.24911518 3.41015625 23.5078125 C3.40817379 24.94271228 3.40433006 26.37761095 3.3984375 27.8125 C3.39505371 29.11832031 3.39166992 30.42414062 3.38818359 31.76953125 C3 35 3 35 1.66650391 36.9296875 C-0.91204033 38.5857581 -3.02043963 38.31697451 -6 38 C-8.45095154 35.54904846 -8.25451426 34.16669818 -8.30354309 30.81898499 C-8.30263168 30.116884 -8.30172028 29.41478302 -8.30078125 28.69140625 C-8.30506638 27.96888168 -8.3093515 27.24635712 -8.31376648 26.50193787 C-8.31951237 24.97290088 -8.32000812 23.44383656 -8.31567383 21.91479492 C-8.31251671 19.57488326 -8.33595758 17.23623933 -8.36132812 14.89648438 C-8.36360139 13.41145993 -8.36430449 11.92643208 -8.36328125 10.44140625 C-8.372491 9.7413295 -8.38170074 9.04125275 -8.39118958 8.31996155 C-8.36357767 5.42080119 -8.33029463 3.46932879 -6.63354492 1.05834961 C-4.27828073 -0.46759125 -2.74630996 -0.41194649 0 0 Z " fill="#0CA6DE" transform="translate(172,27)"/>
<path d="M0 0 C1.6640625 1.0234375 1.6640625 1.0234375 3 3 C3.29834873 5.76118825 3.41911153 8.24548016 3.375 11 C3.38660156 11.72445312 3.39820313 12.44890625 3.41015625 13.1953125 C3.39355 16.19550753 3.3761494 18.42843364 1.69921875 20.9765625 C-1.18851888 22.71584355 -3.74017278 22.35561751 -7 22 C-9.48614181 18.27078729 -9.33170055 15.31628318 -9.3125 11 C-9.32861328 10.27554688 -9.34472656 9.55109375 -9.36132812 8.8046875 C-9.36618174 3.54336646 -9.36618174 3.54336646 -7.66796875 1.0234375 C-5.03802975 -0.59024873 -3.00464304 -0.37558038 0 0 Z " fill="#0DA7DE" transform="translate(18,43)"/>
<path d="M0 0 C3.0625 0.3125 3.0625 0.3125 4.734375 1.33203125 C6.81879499 4.4402693 6.45526581 7.70374898 6.375 11.3125 C6.37822266 12.03695312 6.38144531 12.76140625 6.38476562 13.5078125 C6.34635299 17.2932029 6.20719404 19.09545894 4.0625 22.3125 C0.5625 22.625 0.5625 22.625 -2.9375 22.3125 C-5.30318222 19.94681778 -5.19321704 19.46017774 -5.203125 16.25 C-5.20570313 15.45335937 -5.20828125 14.65671875 -5.2109375 13.8359375 C-5.20320312 13.00320312 -5.19546875 12.17046875 -5.1875 11.3125 C-5.19523438 10.47976562 -5.20296875 9.64703125 -5.2109375 8.7890625 C-5.20835937 7.99242187 -5.20578125 7.19578125 -5.203125 6.375 C-5.20086914 5.64410156 -5.19861328 4.91320313 -5.19628906 4.16015625 C-4.71934638 0.75496545 -3.21689061 0.34222241 0 0 Z " fill="#07A4DD" transform="translate(137.9375,42.6875)"/>
<path d="M0 0 C3 0.25 3 0.25 5 2.25 C5.24291992 4.20532227 5.24291992 4.20532227 5.23046875 6.56640625 C5.22853516 7.41267578 5.22660156 8.25894531 5.22460938 9.13085938 C5.21236328 10.01580078 5.20011719 10.90074219 5.1875 11.8125 C5.18685547 12.70130859 5.18621094 13.59011719 5.18554688 14.50585938 C5.14021097 21.10978903 5.14021097 21.10978903 4 22.25 C0.5625 22.4375 0.5625 22.4375 -3 22.25 C-5.36568222 19.88431778 -5.25571704 19.39767774 -5.265625 16.1875 C-5.26820313 15.39085937 -5.27078125 14.59421875 -5.2734375 13.7734375 C-5.26570312 12.94070312 -5.25796875 12.10796875 -5.25 11.25 C-5.25773438 10.41726562 -5.26546875 9.58453125 -5.2734375 8.7265625 C-5.27085937 7.92992187 -5.26828125 7.13328125 -5.265625 6.3125 C-5.26336914 5.58160156 -5.26111328 4.85070313 -5.25878906 4.09765625 C-4.77490843 0.6429311 -3.26461814 0.27205151 0 0 Z " fill="#03A4DD" transform="translate(261,42.75)"/>
</svg>
