<?xml version="1.0" encoding="UTF-8"?>
<svg version="1.1" xmlns="http://www.w3.org/2000/svg" width="204" height="192">
<path d="M0 0 C67.32 0 134.64 0 204 0 C204 63.36 204 126.72 204 192 C136.68 192 69.36 192 0 192 C0 128.64 0 65.28 0 0 Z " fill="#FEFEFD" transform="translate(0,0)"/>
<path d="M0 0 C1.60294922 0.34998047 1.60294922 0.34998047 3.23828125 0.70703125 C16.15871106 3.85449969 27.56852561 10.62879063 37 20 C35.4608199 23.66752005 33.24514548 25.98580573 30.4296875 28.765625 C29.53378906 29.65507813 28.63789063 30.54453125 27.71484375 31.4609375 C26.77769531 32.38132813 25.84054688 33.30171875 24.875 34.25 C23.92011363 35.19484856 22.96568141 36.14015633 22.01171875 37.0859375 C19.67890913 39.39518338 17.34155914 41.69963203 15 44 C11.96524981 42.81609951 9.0197355 41.56805555 6.1171875 40.08984375 C5.42496094 39.73986328 4.73273438 39.38988281 4.01953125 39.02929688 C3.31183594 38.66900391 2.60414062 38.30871094 1.875 37.9375 C0.45668585 37.21556532 -0.9625505 36.49543884 -2.3828125 35.77734375 C-3.00559082 35.46015381 -3.62836914 35.14296387 -4.27001953 34.81616211 C-13.04030801 30.67855635 -28.17201257 31.48275685 -37.1875 34.5625 C-39.64611433 35.65124815 -39.64611433 35.65124815 -42 37 C-42.928125 37.49757812 -43.85625 37.99515625 -44.8125 38.5078125 C-55.40769871 44.69794218 -61.82206668 52.99890802 -67 64 C-67.34160156 64.69351563 -67.68320313 65.38703125 -68.03515625 66.1015625 C-72.41087473 76.64399122 -71.12404543 91.99384308 -67.03515625 102.47265625 C-60.41990689 116.88365401 -49.40971991 125.88218909 -35 132 C-22.54356173 135.65271342 -7.75308511 133.60089128 3.5625 127.75 C15.62920349 120.57807923 21.72928276 112.54143449 28 100 C12.16 100 -3.68 100 -20 100 C-20 88.78 -20 77.56 -20 66 C7.72 66 35.44 66 64 66 C66.38856449 82.71995143 66.31496961 99.49226443 59 115 C58.73703125 115.74378906 58.4740625 116.48757812 58.203125 117.25390625 C51.55188793 135.8948733 35.04093948 150.83512498 18 160 C14.39852238 161.61637144 10.76722643 162.83283718 7 164 C6.03707031 164.37125 5.07414062 164.7425 4.08203125 165.125 C-14.84138917 171.76317915 -38.42189949 169.61344131 -56.40625 160.98046875 C-68.33653454 154.79802339 -78.61232294 146.5096591 -87 136 C-87.72960937 135.13761719 -88.45921875 134.27523437 -89.2109375 133.38671875 C-102.59380256 116.14429022 -106.49332928 93.31000283 -105 72 C-103.78316065 63.2409009 -101.00916502 54.86929044 -97 47 C-96.46439453 45.824375 -96.46439453 45.824375 -95.91796875 44.625 C-89.13776174 30.11218233 -79.12320067 19.85947103 -66 11 C-65.08347656 10.37738281 -64.16695312 9.75476562 -63.22265625 9.11328125 C-54.97436448 3.8972833 -46.38391296 1.34355721 -37 -1 C-36.21753906 -1.20496094 -35.43507813 -1.40992188 -34.62890625 -1.62109375 C-23.47982991 -3.22801857 -10.88094082 -2.84781053 0 0 Z " fill="#1A76D1" transform="translate(122,13)"/>
<path d="M0 0 C1.60294922 0.34998047 1.60294922 0.34998047 3.23828125 0.70703125 C16.15871106 3.85449969 27.56852561 10.62879063 37 20 C35.4608199 23.66752005 33.24514548 25.98580573 30.4296875 28.765625 C29.53378906 29.65507813 28.63789063 30.54453125 27.71484375 31.4609375 C26.77769531 32.38132813 25.84054688 33.30171875 24.875 34.25 C23.92011363 35.19484856 22.96568141 36.14015633 22.01171875 37.0859375 C19.67890913 39.39518338 17.34155914 41.69963203 15 44 C11.96524981 42.81609951 9.0197355 41.56805555 6.1171875 40.08984375 C5.42496094 39.73986328 4.73273438 39.38988281 4.01953125 39.02929688 C3.31183594 38.66900391 2.60414062 38.30871094 1.875 37.9375 C0.45668585 37.21556532 -0.9625505 36.49543884 -2.3828125 35.77734375 C-3.00559082 35.46015381 -3.62836914 35.14296387 -4.27001953 34.81616211 C-13.04030801 30.67855635 -28.17201257 31.48275685 -37.1875 34.5625 C-39.64611433 35.65124815 -39.64611433 35.65124815 -42 37 C-42.928125 37.49757812 -43.85625 37.99515625 -44.8125 38.5078125 C-55.40769871 44.69794218 -61.82206668 52.99890802 -67 64 C-67.34160156 64.69351563 -67.68320313 65.38703125 -68.03515625 66.1015625 C-72.36014123 76.52175887 -70.58325232 90.32101944 -68 101 C-74.00431349 105.71550882 -80.07990513 110.32670184 -86.203125 114.88671875 C-88.07999442 116.30485612 -89.9242528 117.76712982 -91.734375 119.26953125 C-94 121 -94 121 -96 121 C-105.79117323 99.81254318 -108.50371321 78.33063794 -101 56 C-99.84118111 52.88827118 -98.50621054 49.95642813 -97 47 C-96.46439453 45.824375 -96.46439453 45.824375 -95.91796875 44.625 C-89.13776174 30.11218233 -79.12320067 19.85947103 -66 11 C-65.08347656 10.37738281 -64.16695312 9.75476562 -63.22265625 9.11328125 C-54.97436448 3.8972833 -46.38391296 1.34355721 -37 -1 C-36.21753906 -1.20496094 -35.43507813 -1.40992188 -34.62890625 -1.62109375 C-23.47982991 -3.22801857 -10.88094082 -2.84781053 0 0 Z " fill="#FF3D01" transform="translate(122,13)"/>
<path d="M0 0 C0.33 0.928125 0.66 1.85625 1 2.8125 C7.13907907 16.9553317 18.22455024 25.0592127 32 31 C43.33672824 34.35437309 58.02444888 33.04501636 68.44921875 27.7578125 C69.97797898 26.92573366 71.49459538 26.07054407 72.9921875 25.18359375 C74.95597233 24.02595405 76.95081411 22.99702542 79 22 C79.55171875 22.73476562 80.1034375 23.46953125 80.671875 24.2265625 C83.01297058 27.01545153 85.3993136 29.11888534 88.25 31.375 C92.41633558 34.71029943 96.47118222 38.12172707 100.44140625 41.6875 C101.98131601 43.08818044 101.98131601 43.08818044 104 44 C102.30670316 49.07989053 97.33645591 51.13642197 93 54 C92.32195312 54.47050781 91.64390625 54.94101563 90.9453125 55.42578125 C85.62684101 58.9898192 80.06063345 61.0192461 74 63 C73.030625 63.37511719 72.06125 63.75023437 71.0625 64.13671875 C52.13173175 70.74856795 28.58040203 68.6145461 10.59375 59.98046875 C-4.15062989 52.33971863 -15.51912155 41.58532467 -25 28.0625 C-25.59772217 27.21026855 -25.59772217 27.21026855 -26.20751953 26.34082031 C-29 22.25143442 -29 22.25143442 -29 20 C-27.671875 18.80859375 -27.671875 18.80859375 -25.75 17.4375 C-25.02554687 16.9115625 -24.30109375 16.385625 -23.5546875 15.84375 C-22.71164063 15.2353125 -21.86859375 14.626875 -21 14 C-18.95502329 12.48362041 -16.9135062 10.96256698 -14.875 9.4375 C-13.85277344 8.674375 -12.83054687 7.91125 -11.77734375 7.125 C-9.59339987 5.45402184 -7.5021743 3.74988243 -5.4375 1.9375 C-3 0 -3 0 0 0 Z " fill="#4CAF50" transform="translate(55,114)"/>
<path d="M0 0 C3.88297717 1.73108095 7.20434438 4.19966616 10.625 6.6875 C11.86951099 7.58502473 13.11430485 8.48215736 14.359375 9.37890625 C14.97232422 9.82121582 15.58527344 10.26352539 16.21679688 10.71923828 C20.11604831 13.51982331 24.05946515 16.25796884 28 19 C27.69201674 20.48011371 27.378482 21.95907325 27.0625 23.4375 C26.88847656 24.26121094 26.71445312 25.08492187 26.53515625 25.93359375 C26 28 26 28 25 29 C24.87081496 31.63777836 24.81025801 34.23645439 24.8125 36.875 C24.81185547 37.64062256 24.81121094 38.40624512 24.81054688 39.19506836 C24.86685884 45.2876391 25.56499445 51.06778957 27 57 C20.99568651 61.71550882 14.92009487 66.32670184 8.796875 70.88671875 C6.92000558 72.30485612 5.0757472 73.76712982 3.265625 75.26953125 C1 77 1 77 -1 77 C-10.79173345 55.8113309 -13.52535608 34.34570019 -6 12 C-4.36452028 7.66421384 -2.57057999 3.85586998 0 0 Z " fill="#FEC009" transform="translate(27,57)"/>
<path d="M0 0 C0.99 0.33 1.98 0.66 3 1 C-0.465 3.97 -0.465 3.97 -4 7 C-3.04065919 3.16263678 -2.76390737 2.40339772 0 0 Z " fill="#FF4515" transform="translate(42,35)"/>
</svg>
