<?xml version="1.0" encoding="UTF-8"?>
<svg version="1.1" xmlns="http://www.w3.org/2000/svg" width="256" height="140">
<path d="M0 0 C84.48 0 168.96 0 256 0 C256 46.2 256 92.4 256 140 C171.52 140 87.04 140 0 140 C0 93.8 0 47.6 0 0 Z " fill="#FDFEFE" transform="translate(0,0)"/>
<path d="M0 0 C10.1648573 6.11245337 15.2847862 26.64823775 19.68554688 37.09008789 C20.56781493 39.16908767 21.46221036 41.24297931 22.36816406 43.31176758 C23.69270754 46.33864937 24.97885277 49.37940672 26.2578125 52.42578125 C26.66693878 53.34160477 27.07606506 54.25742828 27.49758911 55.20100403 C29.79927157 60.82675983 30.2066415 64.20463622 27.8441925 69.8734436 C27.52435898 70.53395721 27.20452545 71.19447083 26.875 71.875 C26.54388718 72.59468964 26.21277435 73.31437927 25.87162781 74.05587769 C24.93972283 76.04287658 23.94888486 77.98986173 22.9375 79.9375 C22.60298828 80.59298828 22.26847656 81.24847656 21.92382812 81.92382812 C21.25369452 83.23698009 20.58136715 84.54901507 19.90673828 85.85986328 C18.20400856 89.18554503 16.54140945 92.53099713 14.875 95.875 C18.505 95.875 22.135 95.875 25.875 95.875 C25.93945312 95.11445313 26.00390625 94.35390625 26.0703125 93.5703125 C27.2212584 88.28490073 29.50310997 83.65345306 31.75 78.75 C37.00714796 67.06175253 41.74744404 55.24324322 46.3671875 43.29296875 C48.76215367 37.1077001 51.29276771 30.98416689 53.875 24.875 C54.535 24.875 55.195 24.875 55.875 24.875 C57.3125 26.37109375 57.3125 26.37109375 58.875 28.3125 C61.02025044 31.02688238 61.02025044 31.02688238 63.875 32.875 C63.875 55.315 63.875 77.755 63.875 100.875 C-20.605 100.875 -105.085 100.875 -192.125 100.875 C-192.125 91.635 -192.125 82.395 -192.125 72.875 C-190.145 72.875 -188.165 72.875 -186.125 72.875 C-186.13388245 72.1366391 -186.14276489 71.3982782 -186.1519165 70.63754272 C-186.23221259 63.66404911 -186.29304057 56.69062499 -186.33224869 49.71678734 C-186.35308423 46.13179099 -186.38132651 42.54717806 -186.42675781 38.96240234 C-186.47036192 35.4999581 -186.49416743 32.03788159 -186.50450897 28.57518387 C-186.51544821 26.61757518 -186.54665128 24.66011352 -186.57818604 22.70272827 C-186.58017806 14.78541663 -186.06538804 10.93099844 -180.52734375 5.23046875 C-174.55067139 0.46506866 -169.55237246 0.29956512 -162.125 0.875 C-158.01260956 2.24579681 -154.92695258 4.30274333 -152.17910767 7.70587158 C-149.70145774 12.80434591 -150.53002471 18.91330089 -150.63671875 24.4609375 C-150.64605405 25.88724525 -150.65316678 27.31356912 -150.65815735 28.73989868 C-150.67717149 32.4787081 -150.72622141 36.21653328 -150.78167725 39.95495605 C-150.83299204 43.77582487 -150.85569729 47.59685405 -150.88085938 51.41796875 C-150.93434827 58.90414471 -151.02223538 66.38930859 -151.125 73.875 C-146.835 73.875 -142.545 73.875 -138.125 73.875 C-138.13023682 71.85060791 -138.13547363 69.82621582 -138.14086914 67.74047852 C-138.15740688 61.06687981 -138.16847196 54.39328022 -138.17681217 47.71966648 C-138.18204041 43.67174258 -138.18913699 39.62383959 -138.20043945 35.57592773 C-138.21127043 31.67264029 -138.21727728 27.76937301 -138.21987724 23.8660717 C-138.22173111 22.37366353 -138.225351 20.88125652 -138.23073006 19.38885689 C-138.23794331 17.30551861 -138.23899083 15.22226469 -138.23852539 13.13891602 C-138.240746 11.95088882 -138.24296661 10.76286163 -138.24525452 9.53883362 C-138.125 6.875 -138.125 6.875 -137.125 5.875 C-137.785 5.215 -138.445 4.555 -139.125 3.875 C-135.50526598 2.55873308 -133.02932869 1.875 -129.125 1.875 C-128.795 25.635 -128.465 49.395 -128.125 73.875 C-123.835 73.875 -119.545 73.875 -115.125 73.875 C-115.125 50.115 -115.125 26.355 -115.125 1.875 C-110.505 1.875 -105.885 1.875 -101.125 1.875 C-100.63 4.35 -100.63 4.35 -100.125 6.875 C-100.785 6.875 -101.445 6.875 -102.125 6.875 C-102.455 9.515 -102.785 12.155 -103.125 14.875 C-103.785 14.875 -104.445 14.875 -105.125 14.875 C-105.24279579 19.29143597 -105.31278111 23.70745914 -105.375 28.125 C-105.40851563 29.35992187 -105.44203125 30.59484375 -105.4765625 31.8671875 C-105.6145781 44.97866923 -102.36320407 56.16241046 -93.27734375 65.84375 C-85.23535338 73.39011074 -77.78915276 75.55656904 -66.93457031 75.48413086 C-56.80099146 75.0477013 -48.73279223 70.64889179 -41.87890625 63.22265625 C-35.25486158 54.3561733 -33.11262891 45.82157845 -32.5625 35.0625 C-32.49772461 33.88010742 -32.49772461 33.88010742 -32.43164062 32.67382812 C-32.32621679 30.74105785 -32.22516906 28.80804974 -32.125 26.875 C-31.68309326 27.24286621 -31.24118652 27.61073242 -30.78588867 27.98974609 C-25.08529905 32.51878416 -19.04687133 35.5061197 -12.4375 38.5 C1.65823127 44.91930836 1.65823127 44.91930836 5.1875 49.625 C6.260583 53.13690801 6.63469299 56.29644616 5.875 59.875 C3.68651871 63.74634795 1.05318975 66.25912809 -2.875 68.3125 C-15.66573658 70.52628133 -23.43098442 66.55875974 -34.125 59.875 C-33.795 63.835 -33.465 67.795 -33.125 71.875 C-22.52406724 76.58652567 -9.80773442 76.58611168 1.125 72.875 C7.57962316 70.03072793 10.78786629 66.04926742 13.875 59.875 C14.05103147 57.46250308 14.14244968 55.04349105 14.1875 52.625 C14.22488281 51.32046875 14.26226562 50.0159375 14.30078125 48.671875 C13.71570284 43.45447855 12.08933303 40.64363299 7.96704102 37.35107422 C2.49442828 33.54567532 -3.37225808 30.61576685 -9.375 27.75 C-20.36660237 22.49809532 -20.36660237 22.49809532 -24.125 18.875 C-25.74212437 14.02362689 -25.82184673 10.35579931 -23.625 5.6875 C-17.32061409 -1.40493415 -8.91405647 -3.13196579 0 0 Z " fill="#FBFDFD" transform="translate(192.125,39.125)"/>
<path d="M0 0 C0.74636719 0.00064453 1.49273437 0.00128906 2.26171875 0.00195312 C6.25653673 0.03377026 9.50533789 0.38856758 13.5 1.1875 C13.5 5.1475 13.5 9.1075 13.5 13.1875 C12.0975 12.3625 10.695 11.5375 9.25 10.6875 C3.38018716 7.76511807 -2.02963819 6.96595677 -8.5 8.1875 C-11.95761758 10.76376408 -14.18301177 13.01945706 -14.81640625 17.3515625 C-14.89761719 18.16367187 -14.97882813 18.97578125 -15.0625 19.8125 C-15.14628906 20.62976563 -15.23007813 21.44703125 -15.31640625 22.2890625 C-15.40728516 23.22878906 -15.40728516 23.22878906 -15.5 24.1875 C-14.85821808 24.16831009 -14.21643616 24.14912018 -13.5552063 24.12934875 C-6.83899035 23.93175187 -0.12244828 23.75712332 6.59472656 23.59545898 C9.09715893 23.53226788 11.59945359 23.46334019 14.1015625 23.38842773 C17.71072262 23.28138855 21.31988462 23.19540398 24.9296875 23.11328125 C26.03738495 23.07592361 27.1450824 23.03856598 28.28634644 23.00007629 C40.58847295 22.76516642 49.24762063 26.02278278 58.5 34.1875 C61.26961788 37.2883859 63.63928017 40.46606034 65.5 44.1875 C65.75652344 43.39085937 66.01304687 42.59421875 66.27734375 41.7734375 C68.70510031 35.05419207 70.83911788 30.98402927 77.0234375 27.2734375 C83.3692671 24.4908813 89.05833877 23.87216459 95.875 23.9375 C96.67421875 23.92976563 97.4734375 23.92203125 98.296875 23.9140625 C100.70888031 23.92186834 103.0928382 24.03982136 105.5 24.1875 C106.29051758 24.18943359 107.08103516 24.19136719 107.89550781 24.19335938 C110.58601274 24.4210435 112.18426162 24.77649846 114.5 26.1875 C117.20985528 30.23989928 118.79452581 34.63956882 120.5 39.1875 C121.50518731 41.57567628 122.51694291 43.96109831 123.53515625 46.34375 C124.5470305 48.79052722 125.55613134 51.23845317 126.5625 53.6875 C127.06587891 54.90308594 127.56925781 56.11867187 128.08789062 57.37109375 C131.01209289 64.4602982 133.82577336 71.57546496 136.51733398 78.75585938 C137.27922546 81.09694537 137.27922546 81.09694537 138.5 82.1875 C138.82685791 81.36773682 139.15371582 80.54797363 139.49047852 79.70336914 C143.67928181 69.20226689 143.67928181 69.20226689 145.72680664 64.10180664 C146.13773308 63.07812737 146.13773308 63.07812737 146.55696106 62.0337677 C147.10732887 60.66279532 147.65777437 59.29185413 148.20829773 57.92094421 C149.7202255 54.15068959 151.21170622 50.373586 152.6796875 46.5859375 C153.26559401 45.09894612 153.85152819 43.61196564 154.4375 42.125 C154.68250244 41.47345947 154.92750488 40.82191895 155.17993164 40.15063477 C157.37081313 34.65899299 160.63751148 31.42915902 165.5 28.1875 C165.5 40.0675 165.5 51.9475 165.5 64.1875 C161.92796392 62.40148196 160.06649035 61.12063183 157.5 58.1875 C157.5 57.5275 157.5 56.8675 157.5 56.1875 C156.84 56.1875 156.18 56.1875 155.5 56.1875 C155.33153564 57.22161011 155.33153564 57.22161011 155.15966797 58.27661133 C154.40243876 61.61800432 153.24133817 64.58928104 151.9453125 67.76171875 C151.68780212 68.39491531 151.43029175 69.02811188 151.16497803 69.68049622 C150.32283769 71.74720943 149.4740951 73.81113547 148.625 75.875 C148.03900854 77.30850518 147.45323601 78.74209987 146.86767578 80.17578125 C142.66692026 90.43974084 138.38037175 100.66650667 134.01611328 110.86206055 C131.70902115 116.26192949 129.51002086 121.66979569 127.5 127.1875 C123.87 127.1875 120.24 127.1875 116.5 127.1875 C117.87805803 122.70032582 119.66715249 118.67177331 121.8125 114.5 C122.4315788 113.26331562 123.05006186 112.02633284 123.66796875 110.7890625 C124.7965504 108.54616248 125.96245964 106.34882029 127.17578125 104.1484375 C127.89314453 102.77558594 127.89314453 102.77558594 128.625 101.375 C129.27855469 100.18970703 129.27855469 100.18970703 129.9453125 98.98046875 C130.82350652 94.55857634 129.15867401 91.2863027 127.5 87.1875 C127.09249512 86.16358154 126.68499023 85.13966309 126.26513672 84.0847168 C124.82649635 80.52512271 123.35640442 76.97942952 121.875 73.4375 C121.33981659 72.15438958 120.80466064 70.87126771 120.26953125 69.58813477 C119.19463108 67.01305048 118.11706783 64.43909899 117.03808594 61.86572266 C115.63156968 58.5021395 114.23962193 55.13294814 112.8515625 51.76171875 C112.06840598 49.8825216 111.28459792 48.00359579 110.5 46.125 C110.15114746 45.2700293 109.80229492 44.41505859 109.44287109 43.53417969 C107.28619287 38.42476911 105.27906154 34.77553516 100.3125 31.9375 C93.73507343 30.18351958 88.11660248 30.60089978 82.1640625 33.9921875 C79.66908271 35.78435608 78.57145216 37.30797233 77.5 40.1875 C77.12296941 44.48564873 77.11535735 47.55604153 79.5 51.1875 C81.72207309 52.73253944 81.72207309 52.73253944 84.41015625 53.9921875 C85.40080078 54.49363281 86.39144531 54.99507812 87.41210938 55.51171875 C88.45173828 56.02347656 89.49136719 56.53523438 90.5625 57.0625 C112.36345339 67.91440678 112.36345339 67.91440678 116.5 76.1875 C117.31191232 84.5018933 117.65674552 91.67646769 112.19921875 98.45703125 C109.77858466 100.92218275 107.58957988 102.61242006 104.5 104.1875 C103.92378906 104.48398438 103.34757813 104.78046875 102.75390625 105.0859375 C93.83611698 108.87556335 81.08444598 108.73046555 71.9375 105.75 C68.5 104.1875 68.5 104.1875 67.5 103.1875 C67.42755947 101.16785801 67.41622812 99.14582876 67.4375 97.125 C67.44652344 96.02027344 67.45554687 94.91554688 67.46484375 93.77734375 C67.47644531 92.92269531 67.48804688 92.06804687 67.5 91.1875 C71.70416324 92.78167125 75.44305346 94.80415341 79.31640625 97.06640625 C84.85084558 99.90788047 91.55760111 100.13397384 97.56640625 98.69140625 C101.74341189 97.0945812 104.33814578 95.07883759 106.5 91.1875 C107.18901875 86.80917834 106.90709892 82.97118265 104.5 79.1875 C98.06550075 73.98420334 89.71302251 70.84279241 82.18969727 67.52270508 C77.35528352 65.32587104 73.9876456 63.21279482 70.5 59.1875 C70.46261719 60.22648437 70.42523438 61.26546875 70.38671875 62.3359375 C69.70972383 77.86579069 66.44075034 89.40537022 54.73046875 100.390625 C45.99328127 107.42933996 36.49862454 108.54207169 25.62255859 107.51708984 C16.6555979 106.12470464 8.84640532 100.33593032 3.5 93.1875 C-3.795467 80.95782205 -6.4824938 68.60685659 -3.8125 54.57421875 C-1.24068417 45.45498846 2.83551473 38.85198527 9.5 32.1875 C1.58 31.8575 -6.34 31.5275 -14.5 31.1875 C-14.5 55.2775 -14.5 79.3675 -14.5 104.1875 C-18.13 104.1875 -21.76 104.1875 -25.5 104.1875 C-25.5 80.0975 -25.5 56.0075 -25.5 31.1875 C-28.8 31.1875 -32.1 31.1875 -35.5 31.1875 C-35.5 28.8775 -35.5 26.5675 -35.5 24.1875 C-32.2 24.1875 -28.9 24.1875 -25.5 24.1875 C-25.438125 22.8675 -25.37625 21.5475 -25.3125 20.1875 C-24.56166269 13.55510373 -21.46285765 8.69828118 -16.5 4.3125 C-10.94239742 0.37586484 -6.61701335 -0.1085693 0 0 Z " fill="#0A7BBD" transform="translate(90.5,7.8125)"/>
<path d="M0 0 C0.74636719 0.00064453 1.49273437 0.00128906 2.26171875 0.00195312 C6.25653673 0.03377026 9.50533789 0.38856758 13.5 1.1875 C13.5 5.1475 13.5 9.1075 13.5 13.1875 C12.0975 12.3625 10.695 11.5375 9.25 10.6875 C3.38018716 7.76511807 -2.02963819 6.96595677 -8.5 8.1875 C-11.95761758 10.76376408 -14.18301177 13.01945706 -14.81640625 17.3515625 C-14.89761719 18.16367187 -14.97882813 18.97578125 -15.0625 19.8125 C-15.14628906 20.62976563 -15.23007813 21.44703125 -15.31640625 22.2890625 C-15.40728516 23.22878906 -15.40728516 23.22878906 -15.5 24.1875 C-14.85821808 24.16831009 -14.21643616 24.14912018 -13.5552063 24.12934875 C-6.83899035 23.93175187 -0.12244828 23.75712332 6.59472656 23.59545898 C9.09715893 23.53226788 11.59945359 23.46334019 14.1015625 23.38842773 C17.71072262 23.28138855 21.31988462 23.19540398 24.9296875 23.11328125 C26.03738495 23.07592361 27.1450824 23.03856598 28.28634644 23.00007629 C35.22864926 22.86751259 40.98891815 23.74938733 47.5 26.1875 C47.5 26.5175 47.5 26.8475 47.5 27.1875 C45.52 27.1875 43.54 27.1875 41.5 27.1875 C41.5 28.5075 41.5 29.8275 41.5 31.1875 C42.11875 31.290625 42.7375 31.39375 43.375 31.5 C45.5 32.1875 45.5 32.1875 47.5 35.1875 C48.985 35.6825 48.985 35.6825 50.5 36.1875 C50.5 37.5075 50.5 38.8275 50.5 40.1875 C51.16 40.5175 51.82 40.8475 52.5 41.1875 C53.125 43.75 53.125 43.75 53.5 46.1875 C52.7265625 45.135625 52.7265625 45.135625 51.9375 44.0625 C47.12274381 38.3835568 42.00649556 33.65252237 34.5 32.1875 C27.78495552 31.79873427 22.59471674 33.87907147 17.5 38.1875 C10.21131076 45.45935624 7.33755129 55.00971287 7 65.125 C7.31733381 75.35901532 9.91613682 85.76220495 17.42578125 93.05859375 C23.37466533 98.46370415 27.36921978 99.61480944 35.42578125 99.52734375 C42.24585163 98.77340967 46.98036508 94.42042345 51.1796875 89.234375 C53.59266476 85.49354635 55.06500345 81.38275462 56.5 77.1875 C57.85830065 80.88558306 57.13277785 83.17069269 55.8125 86.8125 C55.47863281 87.77414063 55.14476562 88.73578125 54.80078125 89.7265625 C53.30814936 92.55046067 52.3283953 92.93171553 49.5 94.1875 C49.005 95.6725 49.005 95.6725 48.5 97.1875 C47.51 97.1875 46.52 97.1875 45.5 97.1875 C45.5 97.8475 45.5 98.5075 45.5 99.1875 C44.51 99.1875 43.52 99.1875 42.5 99.1875 C42.83 99.8475 43.16 100.5075 43.5 101.1875 C48.45 100.6925 48.45 100.6925 53.5 100.1875 C47.40266747 106.28483253 41.11561655 107.65611637 32.6875 107.8125 C22.39759198 107.73956691 14.81011427 104.46754628 7.125 97.5625 C-1.92710832 87.73719076 -5.13844561 75.38032198 -4.8125 62.33203125 C-4.13830843 50.18815566 1.05220382 40.63529618 9.5 32.1875 C1.58 31.8575 -6.34 31.5275 -14.5 31.1875 C-14.5 55.2775 -14.5 79.3675 -14.5 104.1875 C-18.13 104.1875 -21.76 104.1875 -25.5 104.1875 C-25.5 80.0975 -25.5 56.0075 -25.5 31.1875 C-28.8 31.1875 -32.1 31.1875 -35.5 31.1875 C-35.5 28.8775 -35.5 26.5675 -35.5 24.1875 C-32.2 24.1875 -28.9 24.1875 -25.5 24.1875 C-25.438125 22.8675 -25.37625 21.5475 -25.3125 20.1875 C-24.56166269 13.55510373 -21.46285765 8.69828118 -16.5 4.3125 C-10.94239742 0.37586484 -6.61701335 -0.1085693 0 0 Z M19.5 99.1875 C19.5 100.8375 19.5 102.4875 19.5 104.1875 C27.97902355 107.01384118 34.9642321 106.40047686 43.5 104.1875 C43.5 103.5275 43.5 102.8675 43.5 102.1875 C42.40300781 102.13851562 41.30601562 102.08953125 40.17578125 102.0390625 C38.72133075 101.96399409 37.26690484 101.88844803 35.8125 101.8125 C35.09126953 101.7815625 34.37003906 101.750625 33.62695312 101.71875 C29.48568469 101.49183118 26.33407595 100.88692826 22.5 99.1875 C21.51 99.1875 20.52 99.1875 19.5 99.1875 Z " fill="#0F7BB8" transform="translate(90.5,7.8125)"/>
<path d="M0 0 C7.7806367 5.44953325 12.49970209 12.63369212 14.8125 21.875 C15.18323896 25.108823 15.29282352 28.30889889 15.3125 31.5625 C15.31878418 32.34592773 15.32506836 33.12935547 15.33154297 33.93652344 C15.13772478 42.89732149 12.33013479 52.30147694 5.91796875 58.79296875 C-0.54480157 64.60826301 -4.51332641 66.31514443 -13.2890625 66.11328125 C-19.84303685 65.57447743 -23.87322216 61.89623569 -28.2890625 57.328125 C-35.80572664 47.61523389 -37.07495333 35.73687619 -36.1875 23.875 C-34.30033055 14.76266751 -30.42689086 8.00282795 -23.8125 1.5625 C-15.94729916 -3.49370054 -8.38795066 -4.82506876 0 0 Z " fill="#FAFDFD" transform="translate(133.1875,42.125)"/>
<path d="M0 0 C0.66 0 1.32 0 2 0 C3.4375 1.49609375 3.4375 1.49609375 5 3.4375 C7.14525044 6.15188238 7.14525044 6.15188238 10 8 C10 30.44 10 52.88 10 76 C3.173125 76.04125 -3.65375 76.0825 -10.6875 76.125 C-12.83467529 76.14320801 -14.98185059 76.16141602 -17.1940918 76.18017578 C-18.90413157 76.18601937 -20.61417414 76.19111525 -22.32421875 76.1953125 C-23.20549438 76.20554443 -24.08677002 76.21577637 -24.99475098 76.22631836 C-29.44950469 76.22758194 -32.9516826 76.1099436 -37 74 C-37 73.01 -37 72.02 -37 71 C-34.03 71 -31.06 71 -28 71 C-27.93554688 70.23945313 -27.87109375 69.47890625 -27.8046875 68.6953125 C-26.6537416 63.40990073 -24.37189003 58.77845306 -22.125 53.875 C-16.86785204 42.18675253 -12.12755596 30.36824322 -7.5078125 18.41796875 C-5.11284633 12.2327001 -2.58223229 6.10916689 0 0 Z " fill="#FDFEFD" transform="translate(246,64)"/>
<path d="M0 0 C1.98 0 3.96 0 6 0 C6.33 2.97 6.66 5.94 7 9 C7.639375 8.2575 8.27875 7.515 8.9375 6.75 C15.00866748 0.87953227 21.41893246 -0.37526353 29.625 -0.5 C30.34139648 -0.51844971 31.05779297 -0.53689941 31.79589844 -0.5559082 C38.07367553 -0.48282666 42.255348 1.46133608 46.92578125 5.78125 C47.61220703 6.63203125 47.61220703 6.63203125 48.3125 7.5 C48.78300781 8.0671875 49.25351562 8.634375 49.73828125 9.21875 C52.67732367 13.36798636 53.24690383 16.29881248 53.22705078 21.42089844 C53.22689972 22.72194519 53.22674866 24.02299194 53.22659302 25.36346436 C53.21638046 26.77876947 53.20594848 28.19407301 53.1953125 29.609375 C53.19158071 31.06097214 53.18873452 32.5125718 53.18673706 33.96417236 C53.17911364 37.77824907 53.15947635 41.59217262 53.1373291 45.40618896 C53.11684278 49.30071949 53.10772939 53.19527484 53.09765625 57.08984375 C53.07622915 64.7266322 53.04210892 72.36329461 53 80 C49.37 80 45.74 80 42 80 C41.98541748 78.21384277 41.97083496 76.42768555 41.95581055 74.58740234 C41.90406994 68.6720368 41.83875991 62.75690381 41.76428509 56.84178734 C41.71964371 53.25701541 41.68037434 49.67235549 41.65356445 46.08740234 C41.62746856 42.62476248 41.58702301 39.16255507 41.53681374 35.70018387 C41.51212068 33.74279832 41.50211639 31.78524523 41.49235535 29.82772827 C41.47256119 28.62693634 41.45276703 27.42614441 41.43237305 26.18896484 C41.41571846 24.61011002 41.41571846 24.61011002 41.39872742 22.99935913 C40.76144668 18.20552323 39.0330673 14.95558725 35.5 11.6875 C30.37880877 8.23069592 24.98173043 8.39764393 19 9 C13.42624119 10.87490241 9.60410459 14.79179083 7 20 C6.8800592 21.90908186 6.82268712 23.82222248 6.79467773 25.73486328 C6.77473251 26.93595734 6.75478729 28.13705139 6.73423767 29.37454224 C6.71752518 30.67664642 6.70081268 31.97875061 6.68359375 33.3203125 C6.66302375 34.66267538 6.64202727 36.00503179 6.62062073 37.34738159 C6.56540469 40.88188438 6.51599342 44.41644557 6.46777344 47.9510498 C6.41755496 51.55726322 6.36187071 55.16339172 6.30664062 58.76953125 C6.19906483 65.84628049 6.09761858 72.92310584 6 80 C4.02 80 2.04 80 0 80 C0 53.6 0 27.2 0 0 Z " fill="#0C7AB5" transform="translate(0,32)"/>
<path d="M0 0 C0.66 0 1.32 0 2 0 C3.4375 1.49609375 3.4375 1.49609375 5 3.4375 C7.14525044 6.15188238 7.14525044 6.15188238 10 8 C10 22.19 10 36.38 10 51 C-1.2967033 48.17582418 -1.2967033 48.17582418 -4 46 C-4.57909291 43.09582729 -4.75026451 40.35820369 -4.796875 37.3984375 C-4.86390625 36.60695312 -4.9309375 35.81546875 -5 35 C-5.66 34.67 -6.32 34.34 -7 34 C-7 30.7 -7 27.4 -7 24 C-7.33 26.31 -7.66 28.62 -8 31 C-9.32 31 -10.64 31 -12 31 C-9.76188601 23.99593453 -7.12994735 17.22723357 -4.3125 10.4375 C-3.89677734 9.42880859 -3.48105469 8.42011719 -3.05273438 7.38085938 C-2.03784021 4.9194494 -1.02021747 2.45920717 0 0 Z " fill="#FDFDFD" transform="translate(246,64)"/>
<path d="M0 0 C0.8971875 0.7115625 0.8971875 0.7115625 1.8125 1.4375 C4.00382924 3.16465744 4.00382924 3.16465744 7 4 C8.18418067 7.55254201 8.07981494 10.29194694 8.02172852 14.04174805 C8.01212097 14.75419678 8.00251343 15.46664551 7.99261475 16.20068359 C7.95964616 18.55446319 7.91930578 20.90805594 7.87890625 23.26171875 C7.85460304 24.8941024 7.83075957 26.52649295 7.80735779 28.15888977 C7.74453689 32.45468004 7.67546458 36.75034802 7.60510254 41.04602051 C7.5344011 45.42971224 7.46959496 49.81349066 7.40429688 54.19726562 C7.27531022 62.79827307 7.13972113 71.39916027 7 80 C4.36 80 1.72 80 -1 80 C-1.01030746 79.14222458 -1.02061493 78.28444916 -1.03123474 77.40068054 C-1.12915653 69.3223837 -1.23166345 61.24416092 -1.33933926 53.16598797 C-1.39453599 49.0127852 -1.44795082 44.85957535 -1.49731445 40.70629883 C-1.54500591 36.6992001 -1.59735049 32.69218686 -1.65294075 28.6851902 C-1.67334263 27.1553847 -1.69205929 25.62555577 -1.70907402 24.09570885 C-1.73316605 21.95523988 -1.76321392 19.81493207 -1.79467773 17.67456055 C-1.81022202 16.45544479 -1.8257663 15.23632904 -1.84178162 13.98027039 C-1.87064557 10.94558057 -1.87064557 10.94558057 -3 8 C-6.51190809 6.77030122 -6.51190809 6.77030122 -10 6 C-10.33 4.68 -10.66 3.36 -11 2 C-7.7 2 -4.4 2 -1 2 C-0.67 1.34 -0.34 0.68 0 0 Z " fill="#017DC5" transform="translate(67,31)"/>
<path d="M0 0 C1.98 0 3.96 0 6 0 C4.68 0.33 3.36 0.66 2 1 C2 1.66 2 2.32 2 3 C2.66 3 3.32 3 4 3 C4.33 5.31 4.66 7.62 5 10 C6.32 10 7.64 10 9 10 C9 10.66 9 11.32 9 12 C8.34 12 7.68 12 7 12 C5.74256318 18.90471537 5.77528337 25.80645204 5.68359375 32.80859375 C5.66299015 34.14380995 5.64199286 35.47902012 5.62062073 36.81422424 C5.56575137 40.30755702 5.51618906 43.80094518 5.46777344 47.29437256 C5.41729977 50.86752174 5.36174951 54.44059171 5.30664062 58.01367188 C5.19948969 65.00904577 5.09795138 72.0044914 5 79 C3.35 79 1.7 79 0 79 C0 52.93 0 26.86 0 0 Z " fill="#037BC2" transform="translate(0,32)"/>
<path d="M0 0 C3 1 3 1 5 3 C5.99 2.01 6.98 1.02 8 0 C8.17835515 4.54805635 7.99785435 7.8794254 6 12 C5.34 12 4.68 12 4 12 C3.87625 13.134375 3.7525 14.26875 3.625 15.4375 C3.315625 17.2009375 3.315625 17.2009375 3 19 C2.34 19.33 1.68 19.66 1 20 C0.71944555 22.18518363 0.71944555 22.18518363 0.6875 24.8125 C0.23035359 31.51145312 -2.154759 36.98404764 -5 43 C-8.63 43 -12.26 43 -16 43 C-14.6077541 38.37324343 -12.70479016 34.35313769 -10.375 30.125 C-9.74335938 28.97257812 -9.11171875 27.82015625 -8.4609375 26.6328125 C-7.97882813 25.76398438 -7.49671875 24.89515625 -7 24 C-6.34 24 -5.68 24 -5 24 C-5 23.01 -5 22.02 -5 21 C-4.01 21 -3.02 21 -2 21 C-1.8309093 18.93769732 -1.66482867 16.8751477 -1.5 14.8125 C-1.4071875 13.66394531 -1.314375 12.51539062 -1.21875 11.33203125 C-0.96374986 8.10106824 -0.96374986 8.10106824 -1.03125 5.26171875 C-1 3 -1 3 0 0 Z " fill="#047CC3" transform="translate(223,92)"/>
<path d="M0 0 C3.3 0 6.6 0 10 0 C10 24.09 10 48.18 10 73 C13.63 73 17.26 73 21 73 C21 48.91 21 24.82 21 0 C29.25 0 37.5 0 46 0 C44.02 2.31 42.04 4.62 40 7 C36.18046978 13.32507675 33.39528313 19.74452774 32 27 C31.67 27 31.34 27 31 27 C30.97301811 25.37509046 30.95361243 23.75005367 30.9375 22.125 C30.92589844 21.22007813 30.91429688 20.31515625 30.90234375 19.3828125 C31 17 31 17 32 15 C32.66 15 33.32 15 34 15 C34.33 12.36 34.66 9.72 35 7 C35.66 7 36.32 7 37 7 C36.505 5.02 36.505 5.02 36 3 C29.07 2.505 29.07 2.505 22 2 C22 25.76 22 49.52 22 74 C17.71 74 13.42 74 9 74 C9 49.91 9 25.82 9 1 C6.03 1 3.06 1 0 1 C0 0.67 0 0.34 0 0 Z " fill="#C9EBFB" transform="translate(55,39)"/>
<path d="M0 0 C2.86724686 0.57344937 3.8614515 0.8614515 6 3 C6.66 3.33 7.32 3.66 8 4 C8 5.65 8 7.3 8 9 C8.99 9.33 9.98 9.66 11 10 C11.33 11.98 11.66 13.96 12 16 C11.34 16 10.68 16 10 16 C10 16.66 10 17.32 10 18 C10.60328125 18.05542969 11.2065625 18.11085938 11.828125 18.16796875 C14 19 14 19 15.484375 21.36328125 C15.90203125 22.33652344 16.3196875 23.30976562 16.75 24.3125 C17.17796875 25.27800781 17.6059375 26.24351563 18.046875 27.23828125 C19 30 19 30 19 34 C19.66 34 20.32 34 21 34 C21.96891192 39.37305699 21.96891192 39.37305699 22 42 C20.5625 44 20.5625 44 19 45 C15.65894477 42.17295327 14.14434256 40.65509317 13.1875 36.3125 C13.08736203 34.5433959 13 32.77193593 13 31 C12.01 30.67 11.02 30.34 10 30 C9.8453125 28.6078125 9.8453125 28.6078125 9.6875 27.1875 C8.96516098 23.83847362 8.40619812 23.1969635 6 21 C6 20.01 6 19.02 6 18 C5.01 18 4.02 18 3 18 C3.20625 17.319375 3.4125 16.63875 3.625 15.9375 C4.10166963 12.20358791 3.10355636 9.5703294 2 6 C2 4.68 2 3.36 2 2 C1.34 2 0.68 2 0 2 C0 1.34 0 0.68 0 0 Z " fill="#027DC4" transform="translate(202,46)"/>
<path d="M0 0 C2 2 2 2 2.1953125 3.9453125 C2.13020833 5.96354167 2.06510417 7.98177083 2 10 C2.66 10 3.32 10 4 10 C4 30.79 4 51.58 4 73 C2.68 73 1.36 73 0 73 C-0.15368759 63.77738043 -0.30186924 54.55469383 -0.4429636 45.33187294 C-0.50864904 41.04964977 -0.57625231 36.76747457 -0.64819336 32.48535156 C-0.71751163 28.35518776 -0.78185116 24.22497401 -0.84269524 20.09467697 C-0.86682655 18.51654606 -0.89277148 16.93844184 -0.92053413 15.36037064 C-0.95902419 13.15516586 -0.99114551 10.94995549 -1.02172852 8.74462891 C-1.04171402 7.48776276 -1.06169952 6.23089661 -1.08229065 4.9359436 C-1 2 -1 2 0 0 Z " fill="#0779BC" transform="translate(66,38)"/>
<path d="M0 0 C1.35830065 3.69808306 0.63277785 5.98319269 -0.6875 9.625 C-1.02136719 10.58664063 -1.35523438 11.54828125 -1.69921875 12.5390625 C-3.19185064 15.36296067 -4.1716047 15.74421553 -7 17 C-7.495 18.485 -7.495 18.485 -8 20 C-8.99 20 -9.98 20 -11 20 C-11 20.66 -11 21.32 -11 22 C-11.99 22 -12.98 22 -14 22 C-13.505 22.99 -13.505 22.99 -13 24 C-9.7 23.67 -6.4 23.34 -3 23 C-9.09776867 29.09776867 -15.38411209 30.46770505 -23.8125 30.625 C-32.86933665 30.56907634 -40.3352043 28.42625501 -47.0625 22.04296875 C-48.75 20.125 -48.75 20.125 -51 17 C-49.68 16.34 -48.36 15.68 -47 15 C-47.33 16.32 -47.66 17.64 -48 19 C-44.77484237 20.73662334 -41.48670834 21.8905928 -38 23 C-39.76084062 19.0381086 -42.0293555 14.98532225 -46 13 C-46 11.35 -46 9.7 -46 8 C-45.484375 8.680625 -44.96875 9.36125 -44.4375 10.0625 C-42.53404268 12.35641011 -40.62198491 14.53808125 -38.5625 16.6875 C-38.00691406 17.26886719 -37.45132813 17.85023437 -36.87890625 18.44921875 C-32.09647167 22.39646725 -26.9730418 22.49218548 -21.00390625 22.375 C-14.2284456 21.52916876 -9.50473935 17.21452783 -5.3203125 12.046875 C-2.90733524 8.30604635 -1.43499655 4.19525462 0 0 Z M-37 22 C-37 23.65 -37 25.3 -37 27 C-28.52097645 29.82634118 -21.5357679 29.21297686 -13 27 C-13 26.34 -13 25.68 -13 25 C-14.09699219 24.95101562 -15.19398438 24.90203125 -16.32421875 24.8515625 C-17.77866925 24.77649409 -19.23309516 24.70094803 -20.6875 24.625 C-21.40873047 24.5940625 -22.12996094 24.563125 -22.87304688 24.53125 C-27.01431531 24.30433118 -30.16592405 23.69942826 -34 22 C-34.99 22 -35.98 22 -37 22 Z " fill="#1F79AC" transform="translate(147,85)"/>
<path d="M0 0 C4.29 0 8.58 0 13 0 C13 0.66 13 1.32 13 2 C15.01822917 1.90234375 17.03645833 1.8046875 19.0546875 1.70703125 C19.69664063 1.80371094 20.33859375 1.90039062 21 2 C23.35119399 5.52679099 23.21443452 7.02879485 23.125 11.1875 C23.10695312 12.27417969 23.08890625 13.36085938 23.0703125 14.48046875 C23.04710937 15.31191406 23.02390625 16.14335937 23 17 C21.1328125 18.04296875 21.1328125 18.04296875 19 19 C15.68920881 17.92886167 14.99115765 16.98673647 13 14 C10.04935852 13.7791436 7.31631769 13.71939011 4.375 13.8125 C3.57320312 13.82603516 2.77140625 13.83957031 1.9453125 13.85351562 C-0.03674378 13.88890949 -2.01845551 13.94271766 -4 14 C-2.20505757 11.69046656 -1.29819329 11.04903623 1.63671875 10.56640625 C8.5971802 10.55749401 13.06622277 11.30538399 19 15 C19.495 15.495 19.495 15.495 20 16 C20.33 12.37 20.66 8.74 21 5 C17.49915355 4.89135304 14.00172828 4.81237175 10.5 4.75 C9.51773438 4.71648438 8.53546875 4.68296875 7.5234375 4.6484375 C1.16851923 4.56370526 -3.76136704 5.20204986 -9 9 C-10.86539947 10.90548727 -12.39418022 12.85890696 -14 15 C-14.33 15 -14.66 15 -15 15 C-15.375 11.75 -15.375 11.75 -15 8 C-10.49444593 3.61301314 -5.00123909 2.90137188 1 2 C0.67 1.34 0.34 0.68 0 0 Z " fill="#DCF5FC" transform="translate(83,4)"/>
<path d="M0 0 C6.27 0 12.54 0 19 0 C13.375 5.625 13.375 5.625 9 6 C8.67 6.99 8.34 7.98 8 9 C7.360625 9.309375 6.72125 9.61875 6.0625 9.9375 C3.82908985 10.82700866 3.82908985 10.82700866 3 13.0625 C2 15 2 15 -0.125 15.75 C-1.053125 15.87375 -1.053125 15.87375 -2 16 C-2 16.99 -2 17.98 -2 19 C-2.99 19.33 -3.98 19.66 -5 20 C-5.33 17.36 -5.66 14.72 -6 12 C-5.34 12 -4.68 12 -4 12 C-2.43727811 7.60746227 -2.43727811 7.60746227 -2 3 C-2.66 2.67 -3.32 2.34 -4 2 C-2.68 2 -1.36 2 0 2 C0 1.34 0 0.68 0 0 Z " fill="#027DC4" transform="translate(103,33)"/>
<path d="M0 0 C0.33 0 0.66 0 1 0 C1 18.15 1 36.3 1 55 C0.01 55 -0.98 55 -2 55 C-2.05062952 47.64936254 -2.08570377 40.29876989 -2.10986328 32.94799805 C-2.11993288 30.44635335 -2.13358934 27.94472045 -2.15087891 25.44311523 C-2.17508492 21.85137014 -2.18647346 18.2597804 -2.1953125 14.66796875 C-2.20563507 13.54601608 -2.21595764 12.42406342 -2.22659302 11.26811218 C-2.22674408 10.22725967 -2.22689514 9.18640717 -2.22705078 8.11401367 C-2.231492 7.19690109 -2.23593323 6.27978851 -2.24050903 5.33488464 C-2 3 -2 3 0 0 Z " fill="#027CC8" transform="translate(49,56)"/>
<path d="M0 0 C3.62181982 1.20727327 5.29709344 2.59418688 7 6 C6.34 6 5.68 6 5 6 C5 28.11 5 50.22 5 73 C0.71 73 -3.58 73 -8 73 C-8 52.87 -8 32.74 -8 12 C-7.67 12 -7.34 12 -7 12 C-7 31.8 -7 51.6 -7 72 C-3.37 72 0.26 72 4 72 C3.93864615 63.64571253 3.86143832 55.29178282 3.76428509 46.93784237 C3.71965901 43.05827369 3.68038621 39.17880813 3.65356445 35.29907227 C3.62745341 31.55115647 3.58699701 27.80363919 3.53681374 24.05597115 C3.52019748 22.62997986 3.50865066 21.20391972 3.50238609 19.77784538 C3.55145728 9.46687135 3.55145728 9.46687135 0 0 Z " fill="#C9ECFA" transform="translate(49,40)"/>
<path d="M0 0 C0.51949219 0.39832031 1.03898438 0.79664062 1.57421875 1.20703125 C2.27160156 1.73683594 2.96898437 2.26664062 3.6875 2.8125 C4.41324219 3.37066406 5.13898438 3.92882812 5.88671875 4.50390625 C8.04374625 6.14700131 8.04374625 6.14700131 11 7.25 C13 9 13 9 13.30078125 11.40234375 C13.31152281 13.95525504 13.21471266 16.45684787 13 19 C3.48387097 16.90322581 3.48387097 16.90322581 0 14 C-0.48828125 10.64453125 -0.48828125 10.64453125 -0.3125 6.8125 C-0.24482422 4.90404297 -0.24482422 4.90404297 -0.17578125 2.95703125 C-0.11777344 1.98121094 -0.05976563 1.00539063 0 0 Z " fill="#0D7FBD" transform="translate(243,96)"/>
<path d="M0 0 C0.09507063 6.43311296 0.15316726 12.65758005 -1 19 C-1.99 19.33 -2.98 19.66 -4 20 C-4.66 19.01 -5.32 18.02 -6 17 C-10.06024321 19.03802135 -10.06024321 19.03802135 -12 23 C-12.66 23 -13.32 23 -14 23 C-7.16666667 0 -7.16666667 0 0 0 Z " fill="#067ABB" transform="translate(256,36)"/>
<path d="M0 0 C0.77923828 0.00902344 1.55847656 0.01804687 2.36132812 0.02734375 C4.26185447 0.05066309 6.16222008 0.08652414 8.0625 0.125 C8.0625 0.455 8.0625 0.785 8.0625 1.125 C4.4325 1.125 0.8025 1.125 -2.9375 1.125 C-2.9375 1.785 -2.9375 2.445 -2.9375 3.125 C-4.1440625 3.0940625 -4.1440625 3.0940625 -5.375 3.0625 C-7.87104885 2.82866379 -7.87104885 2.82866379 -8.9375 4.125 C-7.43896484 4.19847656 -7.43896484 4.19847656 -5.91015625 4.2734375 C-3.97462891 4.38558594 -3.97462891 4.38558594 -2 4.5 C-0.06833984 4.60441406 -0.06833984 4.60441406 1.90234375 4.7109375 C3.46662109 4.91589844 3.46662109 4.91589844 5.0625 5.125 C5.3925 5.785 5.7225 6.445 6.0625 7.125 C4.7940625 7.05539063 4.7940625 7.05539063 3.5 6.984375 C-3.48567683 6.76210346 -9.26218191 6.67205812 -14.9375 11.125 C-17.52492753 14.11671308 -17.90307253 15.73252681 -18.25 19.6875 C-17.85267481 24.05807709 -17.00549083 26.05700917 -13.9375 29.125 C-15.5875 28.795 -17.2375 28.465 -18.9375 28.125 C-20.37888102 23.80085695 -20.36582867 19.64786037 -19.9375 15.125 C-18.5 12.3125 -18.5 12.3125 -16.9375 10.125 C-16.23079272 7.43245009 -16.23079272 7.43245009 -15.9375 5.125 C-19.05947478 6.4339572 -19.05947478 6.4339572 -20.9375 9.125 C-21.9275 9.125 -22.9175 9.125 -23.9375 9.125 C-23.9375 9.785 -23.9375 10.445 -23.9375 11.125 C-24.5975 10.795 -25.2575 10.465 -25.9375 10.125 C-18.21069857 1.95666706 -10.92170674 -0.24332851 0 0 Z " fill="#1C77AD" transform="translate(185.9375,31.875)"/>
<path d="M0 0 C1.4835001 0.42257276 2.96176424 0.86356322 4.4375 1.3125 C5.67306641 1.67794922 5.67306641 1.67794922 6.93359375 2.05078125 C7.61550781 2.36402344 8.29742187 2.67726563 9 3 C9.33 3.99 9.66 4.98 10 6 C10.66 6 11.32 6 12 6 C12.99 7.485 12.99 7.485 14 9 C14.99 8.67 15.98 8.34 17 8 C17.33 7.01 17.66 6.02 18 5 C18.66 4.01 19.32 3.02 20 2 C22.41262817 6.82525634 21.42745271 13.69292478 21 19 C19.98006538 21.90391867 18.90890046 23.55422128 17 26 C16.67 26 16.34 26 16 26 C16 24.02 16 22.04 16 20 C16.33 20 16.66 20 17 20 C17.33 17.69 17.66 15.38 18 13 C16.68 12.67 15.36 12.34 14 12 C14.226875 12.721875 14.45375 13.44375 14.6875 14.1875 C15.09305931 17.83753379 14.23774092 19.14495124 12 22 C9.8125 23.3125 9.8125 23.3125 8 24 C8.495 23.34 8.99 22.68 9.5 22 C11.53084499 17.93831003 11.35925552 15.52661957 11 11 C9.66840494 7.26868551 7.69701418 5.86371193 4.375 3.8125 C2.90354087 2.89573919 1.44113794 1.96372393 0 1 C0 0.67 0 0.34 0 0 Z " fill="#1778AF" transform="translate(186,80)"/>
<path d="M0 0 C2.75157706 4.1273656 4.49628608 8.57145782 6.4375 13.125 C6.83259766 14.03765625 7.22769531 14.9503125 7.63476562 15.890625 C10.04255166 21.51546958 12.17457373 27.15971446 14 33 C12.515 32.505 12.515 32.505 11 32 C9.8125 29.4375 9.8125 29.4375 9 27 C7.68 27 6.36 27 5 27 C4.96132812 28.2684375 4.96132812 28.2684375 4.921875 29.5625 C4.56197108 36.76057833 3.75425027 41.82365278 0 48 C-1.32 47.67 -2.64 47.34 -4 47 C-3.566875 46.5359375 -3.13375 46.071875 -2.6875 45.59375 C3.30395018 38.15991367 2.60014544 31.05775069 2 22 C3.32 22 4.64 22 6 22 C5.4150714 18.22149574 4.30151954 15.44943372 2.4375 12.125 C0.14932905 7.7327638 -0.53219886 4.89622951 0 0 Z " fill="#DDF5FB" transform="translate(204,61)"/>
<path d="M0 0 C8.91 0 17.82 0 27 0 C27 0.66 27 1.32 27 2 C27.66 2.33 28.32 2.66 29 3 C19.76 3 10.52 3 1 3 C1 26.76 1 50.52 1 75 C0.67 75 0.34 75 0 75 C0 50.25 0 25.5 0 0 Z " fill="#0A70A8" transform="translate(74,36)"/>
<path d="M0 0 C0.66 1.32 1.32 2.64 2 4 C2 3.67 2 3.34 2 3 C9.02952752 3.4535179 14.5849443 5.12059087 21 8 C20.34 9.65 19.68 11.3 19 13 C9.1618657 10.99902353 0.79610773 6.6463756 -8 2 C-6 1 -6 1 -4 1.5625 C-3.01 1.7790625 -3.01 1.7790625 -2 2 C-1.34 1.34 -0.68 0.68 0 0 Z " fill="#0D7BBB" transform="translate(175,70)"/>
<path d="M0 0 C0.33 0.66 0.66 1.32 1 2 C-2.3 2 -5.6 2 -9 2 C-9 4.64 -9 7.28 -9 10 C-6.03 10 -3.06 10 0 10 C0 33.43 0 56.86 0 81 C-0.33 81 -0.66 81 -1 81 C-1.15402873 72.61150821 -1.30220813 64.22294202 -1.4429636 55.83421803 C-1.50850792 51.93881901 -1.57605092 48.04347621 -1.64819336 44.14819336 C-1.71776712 40.38760484 -1.78204924 36.62695938 -1.84269524 32.86621666 C-1.86673283 31.43290625 -1.89266274 29.99962626 -1.92053413 28.56638527 C-1.95930606 26.55582234 -1.990669 24.54512069 -2.02172852 22.53442383 C-2.04171402 21.39080887 -2.06169952 20.24719391 -2.08229065 19.06892395 C-2 16 -2 16 -1 11 C-4.63 11.66 -8.26 12.32 -12 13 C-11.835 12.13375 -11.67 11.2675 -11.5 10.375 C-11.02781452 7.18774801 -10.92344882 4.21514973 -11 1 C-5.555 0.505 -5.555 0.505 0 0 Z " fill="#E6F8FC" transform="translate(64,30)"/>
<path d="M0 0 C0.04254356 1.99954746 0.04080783 4.00041636 0 6 C-0.33 6.33 -0.66 6.66 -1 7 C-1.23701239 9.85877909 -1.42219182 12.69883297 -1.5625 15.5625 C-1.60568359 16.36880859 -1.64886719 17.17511719 -1.69335938 18.00585938 C-1.79975262 20.00368805 -1.90040888 22.0018207 -2 24 C-3.98 24.99 -3.98 24.99 -6 26 C-8.59578235 20.8084353 -8.79405537 12.89293687 -7.27734375 7.3671875 C-3.70249077 0 -3.70249077 0 0 0 Z " fill="#027BC5" transform="translate(94,56)"/>
<path d="M0 0 C0.33 0.66 0.66 1.32 1 2 C1.99 2.33 2.98 2.66 4 3 C3.67 7.29 3.34 11.58 3 16 C2.34 14.68 1.68 13.36 1 12 C0.67 13.32 0.34 14.64 0 16 C-0.680625 15.835 -1.36125 15.67 -2.0625 15.5 C-5.4164822 14.92910941 -8.60389805 14.93340977 -12 15 C-11.13375 14.01 -10.2675 13.02 -9.375 12 C-6.05802459 8.13809292 -3.00716738 4.10552994 0 0 Z " fill="#FCF8FA" transform="translate(155,95)"/>
<path d="M0 0 C1.32421875 2.59375 1.32421875 2.59375 2 5 C0.58847656 4.96519531 0.58847656 4.96519531 -0.8515625 4.9296875 C-2.09679687 4.91164063 -3.34203125 4.89359375 -4.625 4.875 C-6.46964844 4.84019531 -6.46964844 4.84019531 -8.3515625 4.8046875 C-11.94701553 4.99716357 -14.62779521 5.82318953 -18 7 C-18.66 6.67 -19.32 6.34 -20 6 C-19.10791143 2.33252475 -18.25815409 1.17027185 -15.0625 -0.9375 C-10.20163794 -2.73212207 -4.68745021 -2.05221701 0 0 Z " fill="#087BC1" transform="translate(32,34)"/>
<path d="M0 0 C0.33 0 0.66 0 1 0 C1 2.97 1 5.94 1 9 C1.66 9 2.32 9 3 9 C2.979375 9.94875 2.95875 10.8975 2.9375 11.875 C2.77448174 14.90666283 2.77448174 14.90666283 4 17 C3.071875 16.649375 2.14375 16.29875 1.1875 15.9375 C-1.9802953 14.67617372 -1.9802953 14.67617372 -5 16 C-7.04296875 15.87890625 -7.04296875 15.87890625 -9.1875 15.5625 C-10.445625 15.376875 -11.70375 15.19125 -13 15 C-12.67 16.32 -12.34 17.64 -12 19 C-9.69 19.33 -7.38 19.66 -5 20 C-5 20.33 -5 20.66 -5 21 C-7.97 21 -10.94 21 -14 21 C-14 18.69 -14 16.38 -14 14 C-10.7 14 -7.4 14 -4 14 C-3.896875 12.618125 -3.79375 11.23625 -3.6875 9.8125 C-3.25984944 5.88307311 -2.46896014 3.18907351 0 0 Z " fill="#1179B6" transform="translate(69,18)"/>
<path d="M0 0 C7.75 0.75 7.75 0.75 10 3 C12.82552559 3.42686423 12.82552559 3.42686423 16 3.5625 C21.80926431 3.90463215 21.80926431 3.90463215 24 5 C24 5.66 24 6.32 24 7 C19.70838953 7.05783842 15.41687855 7.0935412 11.125 7.125 C9.90167969 7.14175781 8.67835938 7.15851563 7.41796875 7.17578125 C5.66806641 7.18544922 5.66806641 7.18544922 3.8828125 7.1953125 C2.80402832 7.20578613 1.72524414 7.21625977 0.61376953 7.22705078 C-2 7 -2 7 -4 5 C-3.01 4.34 -2.02 3.68 -1 3 C-0.67 2.01 -0.34 1.02 0 0 Z " fill="#087CBF" transform="translate(163,106)"/>
<path d="M0 0 C1.71355038 5.14065113 0.06320331 9.18585895 -2 14 C-0.68 14 0.64 14 2 14 C2.19335938 13.14535156 2.38671875 12.29070312 2.5859375 11.41015625 C2.84632813 10.30542969 3.10671875 9.20070312 3.375 8.0625 C3.75785156 6.40927734 3.75785156 6.40927734 4.1484375 4.72265625 C4.42945313 3.82417969 4.71046875 2.92570312 5 2 C5.66 1.67 6.32 1.34 7 1 C6.43179252 6.45479185 5.05362055 10.91059256 3 16 C-0.63 16 -4.26 16 -8 16 C-6.49387553 10.66010414 -4.01822198 4.01822198 0 0 Z " fill="#1B79AE" transform="translate(215,119)"/>
<path d="M0 0 C0.99 0 1.98 0 3 0 C3.33 0.99 3.66 1.98 4 3 C6.88349928 4.81680116 6.88349928 4.81680116 10 6 C10.66 5.67 11.32 5.34 12 5 C12.99 5.66 13.98 6.32 15 7 C15.66 6.34 16.32 5.68 17 5 C18.25127906 8.54667178 17.72285053 10.72253438 16.5625 14.25 C16.13130859 15.58804688 16.13130859 15.58804688 15.69140625 16.953125 C15.46324219 17.62859375 15.23507813 18.3040625 15 19 C13.44798242 16.93689506 11.90501368 14.86936506 10.38671875 12.78125 C6.96825403 8.19186289 4.00589055 4.80818251 -1 2 C-0.67 1.34 -0.34 0.68 0 0 Z " fill="#F7F9F9" transform="translate(142,35)"/>
<path d="M0 0 C0.66 0.33 1.32 0.66 2 1 C0.625 3 0.625 3 -1 5 C-1.66 5 -2.32 5 -3 5 C-2.608125 5.9075 -2.21625 6.815 -1.8125 7.75 C-1 11 -1 11 -2.375 13.375 C-2.91125 13.91125 -3.4475 14.4475 -4 15 C-4.33 14.34 -4.66 13.68 -5 13 C-5.268125 13.639375 -5.53625 14.27875 -5.8125 14.9375 C-7 17 -7 17 -10 18 C-10.12375 18.804375 -10.2475 19.60875 -10.375 20.4375 C-10.684375 21.7059375 -10.684375 21.7059375 -11 23 C-11.66 23.33 -12.32 23.66 -13 24 C-11.44182935 14.33934197 -7.38118222 6.51280784 0 0 Z " fill="#1378B3" transform="translate(100,40)"/>
<path d="M0 0 C0.36923077 5.53846154 0.36923077 5.53846154 -1.5 7.875 C-1.995 8.24625 -2.49 8.6175 -3 9 C-3.99 8.34 -4.98 7.68 -6 7 C-5.67 6.67 -5.34 6.34 -5 6 C-10.94 5.67 -16.88 5.34 -23 5 C-19 3 -19 3 -16 2 C-15.01 2.33 -14.02 2.66 -13 3 C-13 2.34 -13 1.68 -13 1 C-11.20843648 0.83222817 -9.4167455 0.66581706 -7.625 0.5 C-6.62726563 0.4071875 -5.62953125 0.314375 -4.6015625 0.21875 C-2 0 -2 0 0 0 Z " fill="#077BC2" transform="translate(196,32)"/>
<path d="M0 0 C0.66 0.33 1.32 0.66 2 1 C2.70048208 8.42511009 0.37081613 13.4509858 -3 20 C-4.74565111 16.78360346 -5.204437 14.67986596 -5 11 C-4.34 11 -3.68 11 -3 11 C-2.95101562 10.28972656 -2.90203125 9.57945313 -2.8515625 8.84765625 C-2.77679688 7.92855469 -2.70203125 7.00945312 -2.625 6.0625 C-2.55539063 5.14597656 -2.48578125 4.22945313 -2.4140625 3.28515625 C-2.27742187 2.53105469 -2.14078125 1.77695313 -2 1 C-1.34 0.67 -0.68 0.34 0 0 Z " fill="#0B77BC" transform="translate(237,75)"/>
<path d="M0 0 C1 2 1 2 -1 13 C13.19 13 27.38 13 42 13 C42 13.33 42 13.66 42 14 C27.15 14 12.3 14 -3 14 C-3 3.875 -3 3.875 0 0 Z " fill="#AAD4EF" transform="translate(78,18)"/>
<path d="M0 0 C0.66 0 1.32 0 2 0 C2.33 2.31 2.66 4.62 3 7 C2.34 7 1.68 7 1 7 C1.33 8.65 1.66 10.3 2 12 C2.99 12 3.98 12 5 12 C5.125 18.75 5.125 18.75 4 21 C3.01 20.67 2.02 20.34 1 20 C-1.55649505 13.22528813 -0.87442387 7.08992326 0 0 Z " fill="#0379B6" transform="translate(149,72)"/>
<path d="M0 0 C0.66 0 1.32 0 2 0 C-0.07042054 7.60837466 -2.85830477 14.7728592 -6 22 C-7.79068573 19.3139714 -8.66055791 17.3373411 -9.625 14.3125 C-9.88539063 13.50425781 -10.14578125 12.69601563 -10.4140625 11.86328125 C-10.60742188 11.24839844 -10.80078125 10.63351563 -11 10 C-10.01 10 -9.02 10 -8 10 C-8 11.65 -8 13.3 -8 15 C-7.34 14.67 -6.68 14.34 -6 14 C-5.34786708 11.97536745 -5.34786708 11.97536745 -5 10 C-4.34 10 -3.68 10 -3 10 C-2.87625 9.0925 -2.7525 8.185 -2.625 7.25 C-2.07890323 4.41029677 -1.42736197 2.47409409 0 0 Z " fill="#D6F5FC" transform="translate(235,70)"/>
<path d="M0 0 C0.66 0 1.32 0 2 0 C2.33 1.65 2.66 3.3 3 5 C3.99 5.33 4.98 5.66 6 6 C6.103125 6.928125 6.20625 7.85625 6.3125 8.8125 C6.68062955 11.96245492 6.68062955 11.96245492 8.5 13.4375 C10.8523124 15.88782542 10.6022387 18.7042635 11 22 C11.37125 22.9075 11.7425 23.815 12.125 24.75 C13 27 13 27 12 30 C10.55628153 26.69017694 9.12119733 23.37667475 7.6875 20.0625 C7.28337891 19.13630859 6.87925781 18.21011719 6.46289062 17.25585938 C4.01077618 11.57413079 1.86973018 5.89963406 0 0 Z " fill="#1B76AC" transform="translate(206,64)"/>
<path d="M0 0 C0.33 0.66 0.66 1.32 1 2 C0.07421875 4.13671875 0.07421875 4.13671875 -1.3125 6.6875 C-5.77651493 15.3805817 -6.49026627 23.32847318 -7 33 C-7.33 33 -7.66 33 -8 33 C-8.2224897 30.10462723 -8.42843154 27.20965101 -8.625 24.3125 C-8.68945312 23.49587891 -8.75390625 22.67925781 -8.8203125 21.83789062 C-9.1098257 17.36853066 -9.1739622 14.07410474 -7 10 C-6.34 10 -5.68 10 -5 10 C-5.33 8.68 -5.66 7.36 -6 6 C-5.01 5.67 -4.02 5.34 -3 5 C-3 4.01 -3 3.02 -3 2 C-2.01 1.34 -1.02 0.68 0 0 Z " fill="#1873AB" transform="translate(104,47)"/>
<path d="M0 0 C0.66 0.33 1.32 0.66 2 1 C-1.74665628 4.64593971 -5.78115672 4.84726338 -10.75 5.375 C-11.5234375 5.48199219 -12.296875 5.58898437 -13.09375 5.69921875 C-18.89743215 6.35164611 -22.6795882 5.3929706 -28 3 C-25.20235123 2.20005588 -22.78751853 1.89756357 -19.8828125 1.97265625 C-19.11066406 1.98490234 -18.33851563 1.99714844 -17.54296875 2.00976562 C-15.93870804 2.04475354 -14.33452997 2.08377693 -12.73046875 2.12695312 C-8.01083855 2.1937033 -4.48660922 1.63960184 0 0 Z " fill="#D8F4FC" transform="translate(192,112)"/>
<path d="M0 0 C9.9 0 19.8 0 30 0 C24.98999311 3.34000459 20.98016371 3.18286957 15.1875 3.1875 C14.39279297 3.19974609 13.59808594 3.21199219 12.77929688 3.22460938 C8.11467732 3.23618411 4.38809952 2.78774425 0 1 C0 0.67 0 0.34 0 0 Z " fill="#1E76AD" transform="translate(162,112)"/>
<path d="M0 0 C0.33 0.66 0.66 1.32 1 2 C-1.8653726 9.61403446 -5.77565588 15.77007772 -12 21 C-12 18.66666667 -12 16.33333333 -12 14 C-10.35 13.67 -8.7 13.34 -7 13 C-7.33 11.68 -7.66 10.36 -8 9 C-7.01 9.33 -6.02 9.66 -5 10 C-4.87625 9.2575 -4.7525 8.515 -4.625 7.75 C-4.03879534 5.17069951 -3.36715445 3.2517838 -2 1 C-1.34 0.67 -0.68 0.34 0 0 Z " fill="#0E76B3" transform="translate(158,86)"/>
<path d="M0 0 C1.32 0.66 2.64 1.32 4 2 C4.125 5.375 4.125 5.375 4 9 C3.34 9.66 2.68 10.32 2 11 C1.01 10.67 0.02 10.34 -1 10 C-1 12.64 -1 15.28 -1 18 C-1.33 18 -1.66 18 -2 18 C-2.20852314 11.59370576 -2.1583195 6.07027358 0 0 Z " fill="#1584C6" transform="translate(150,62)"/>
<path d="M0 0 C2.97 0.33 5.94 0.66 9 1 C9.66 2.98 10.32 4.96 11 7 C10.34 6.67 9.68 6.34 9 6 C9 5.01 9 4.02 9 3 C6.69 3.33 4.38 3.66 2 4 C1.67 5.98 1.34 7.96 1 10 C0.01 9.34 -0.98 8.68 -2 8 C-1.34 6.35 -0.68 4.7 0 3 C-1.65 3 -3.3 3 -5 3 C-5 2.67 -5 2.34 -5 2 C-3.35 2 -1.7 2 0 2 C0 1.34 0 0.68 0 0 Z " fill="#1674AF" transform="translate(196,33)"/>
<path d="M0 0 C0.79075928 0.00523682 1.58151855 0.01047363 2.39624023 0.01586914 C3.67724609 0.02070313 3.67724609 0.02070313 4.98413086 0.02563477 C5.88196289 0.03401367 6.77979492 0.04239258 7.70483398 0.05102539 C8.6065332 0.05553711 9.50823242 0.06004883 10.43725586 0.06469727 C12.67234712 0.07652315 14.90730835 0.09300319 17.14233398 0.11352539 C17.14233398 0.44352539 17.14233398 0.77352539 17.14233398 1.11352539 C15.67473633 1.16959961 15.67473633 1.16959961 14.17749023 1.22680664 C4.18526361 1.72789175 -4.08022713 2.27880637 -11.85766602 9.11352539 C-12.51766602 9.11352539 -13.17766602 9.11352539 -13.85766602 9.11352539 C-13.42016602 6.23852539 -13.42016602 6.23852539 -11.85766602 3.11352539 C-9.52169627 2.21474149 -7.3265973 1.80570237 -4.85375977 1.43774414 C-2.60207846 1.07201117 -2.24284725 0.13706452 0 0 Z " fill="#E4F5FC" transform="translate(174.857666015625,30.886474609375)"/>
<path d="M0 0 C5.32541655 0.45908763 9.41932181 1.01723281 14 4 C15.875 6.6875 15.875 6.6875 17 9 C2.47527855 4.76949861 2.47527855 4.76949861 0.6875 1.875 C0.460625 1.25625 0.23375 0.6375 0 0 Z " fill="#017ECB" transform="translate(179,69)"/>
<path d="M0 0 C0.33 0.66 0.66 1.32 1 2 C0.67 2.66 0.34 3.32 0 4 C-0.99 4.33 -1.98 4.66 -3 5 C-4.20882096 7.00016466 -4.20882096 7.00016466 -5 9 C-4.01 9 -3.02 9 -2 9 C-2.66 13.62 -3.32 18.24 -4 23 C-4.33 23 -4.66 23 -5 23 C-5.03738281 22.18015625 -5.07476562 21.3603125 -5.11328125 20.515625 C-5.17902344 19.43796875 -5.24476562 18.3603125 -5.3125 17.25 C-5.37050781 16.18265625 -5.42851563 15.1153125 -5.48828125 14.015625 C-6.03090154 10.8178932 -6.85071145 9.37401309 -9 7 C-7.87720538 6.01830524 -6.75168527 5.03972702 -5.625 4.0625 C-4.68527344 3.24458984 -4.68527344 3.24458984 -3.7265625 2.41015625 C-2 1 -2 1 0 0 Z " fill="#1074AD" transform="translate(79,9)"/>
<path d="M0 0 C2.60797351 1.26347163 5.21123407 2.53535224 7.8125 3.8125 C8.55048828 4.16892578 9.28847656 4.52535156 10.04882812 4.89257812 C10.76103516 5.24384766 11.47324219 5.59511719 12.20703125 5.95703125 C12.8616333 6.27647705 13.51623535 6.59592285 14.19067383 6.92504883 C16.14431545 8.08574024 17.53578218 9.26405415 19 11 C19 11.66 19 12.32 19 13 C13.35979081 11.80687883 11.47179685 10.44823972 8 6 C6.23817189 5.07640693 6.23817189 5.07640693 4.3125 4.375 C3.219375 3.92125 2.12625 3.4675 1 3 C0.67 2.01 0.34 1.02 0 0 Z " fill="#1676B1" transform="translate(184,67)"/>
<path d="M0 0 C1.078125 1.8515625 1.078125 1.8515625 2 4 C0.75 6.375 0.75 6.375 -1 9 C-1.70626239 10.98636298 -2.36893571 12.98848259 -3 15 C-3.46402619 16.44245854 -3.94377651 17.87993445 -4.4375 19.3125 C-4.66308594 19.98925781 -4.88867188 20.66601562 -5.12109375 21.36328125 C-6 23 -6 23 -9 24 C-6.41874331 15.82602049 -3.22988119 7.93359166 0 0 Z " fill="#D4F4FB" transform="translate(233,96)"/>
<path d="M0 0 C0.58523437 0.3609375 1.17046875 0.721875 1.7734375 1.09375 C11.53933007 6.37261085 23.27041485 6.60758842 34 4 C33.67 4.66 33.34 5.32 33 6 C29.82212459 7.0592918 27.57411057 7.11458939 24.23828125 7.09765625 C23.12001953 7.09443359 22.00175781 7.09121094 20.84960938 7.08789062 C19.68236328 7.07951172 18.51511719 7.07113281 17.3125 7.0625 C16.13365234 7.05798828 14.95480469 7.05347656 13.74023438 7.04882812 C10.82677211 7.03703273 7.91341137 7.0205727 5 7 C4.67 6.34 4.34 5.68 4 5 C3.01 4.67 2.02 4.34 1 4 C0.3125 1.9375 0.3125 1.9375 0 0 Z " fill="#C8EAF7" transform="translate(103,109)"/>
<path d="M0 0 C0.66 0 1.32 0 2 0 C3.4375 1.49609375 3.4375 1.49609375 5 3.4375 C7.14525044 6.15188238 7.14525044 6.15188238 10 8 C9.67 8.66 9.34 9.32 9 10 C5.20411134 9.45773019 3.52788007 7.79872437 1 5 C0.34 7.31 -0.32 9.62 -1 12 C-1.99 12 -2.98 12 -4 12 C-2.66666667 8 -1.33333333 4 0 0 Z " fill="#D3F4FD" transform="translate(246,64)"/>
<path d="M0 0 C3.375 0.3125 3.375 0.3125 7 1 C7.66 1.99 8.32 2.98 9 4 C9.99 4.33 10.98 4.66 12 5 C12 6.32 12 7.64 12 9 C12.66 9.33 13.32 9.66 14 10 C14.625 12.5625 14.625 12.5625 15 15 C14.484375 14.29875 13.96875 13.5975 13.4375 12.875 C9.57702611 8.32162054 5.44777188 4.52078918 0 2 C0 1.34 0 0.68 0 0 Z " fill="#1E7AB0" transform="translate(129,39)"/>
<path d="M0 0 C2.5625718 -0.02710123 5.12485365 -0.04688771 7.6875 -0.0625 C8.40873047 -0.07087891 9.12996094 -0.07925781 9.87304688 -0.08789062 C13.81089242 -0.10587165 17.09932066 0.21986413 21 1 C21 4.96 21 8.92 21 13 C17.7 11.35 14.4 9.7 11 8 C15.29399165 6.92650209 16.19495213 7.20317184 20 9 C20 6.69 20 4.38 20 2 C13.4 1.67 6.8 1.34 0 1 C0 0.67 0 0.34 0 0 Z " fill="#2371A2" transform="translate(83,8)"/>
<path d="M0 0 C0.66 0.33 1.32 0.66 2 1 C2 1.66 2 2.32 2 3 C2.66 3 3.32 3 4 3 C4 4.65 4 6.3 4 8 C5.32 8.33 6.64 8.66 8 9 C7.34 11.31 6.68 13.62 6 16 C3.44772349 12.92849245 2.11223296 10.01474376 0.8125 6.25 C0.46832031 5.26515625 0.12414062 4.2803125 -0.23046875 3.265625 C-0.48441406 2.51796875 -0.73835937 1.7703125 -1 1 C-0.67 0.67 -0.34 0.34 0 0 Z " fill="#E1F8FC" transform="translate(209,40)"/>
<path d="M0 0 C0.33 0.66 0.66 1.32 1 2 C1.99 2.33 2.98 2.66 4 3 C3.67 7.29 3.34 11.58 3 16 C2.67 16 2.34 16 2 16 C1.67 12.04 1.34 8.08 1 4 C-0.98 6.64 -2.96 9.28 -5 12 C-6.32 11.67 -7.64 11.34 -9 11 C-8.43410156 10.37351562 -7.86820313 9.74703125 -7.28515625 9.1015625 C-6.18494141 7.87566406 -6.18494141 7.87566406 -5.0625 6.625 C-4.33160156 5.81289062 -3.60070312 5.00078125 -2.84765625 4.1640625 C-0.97010529 2.14075833 -0.97010529 2.14075833 0 0 Z " fill="#B6DBEC" transform="translate(155,95)"/>
<path d="M0 0 C0.3125 2.125 0.3125 2.125 0 5 C-2.16422406 7.9046165 -4.44273523 10.44273523 -7 13 C-8.16213014 8.93254452 -8.26233416 7.47943829 -6.1875 3.6875 C-3.18604651 0 -3.18604651 0 0 0 Z " fill="#027DC8" transform="translate(170,37)"/>
<path d="M0 0 C1.98 1.65 3.96 3.3 6 5 C5.01 5.495 5.01 5.495 4 6 C4 6.99 4 7.98 4 9 C3.34 9 2.68 9 2 9 C2 10.65 2 12.3 2 14 C1.34 14 0.68 14 0 14 C0 9.38 0 4.76 0 0 Z " fill="#2F7DAC" transform="translate(243,96)"/>
<path d="M0 0 C1.35158203 0.15275391 1.35158203 0.15275391 2.73046875 0.30859375 C3.41753906 0.39238281 4.10460937 0.47617188 4.8125 0.5625 C5.1425 1.8825 5.4725 3.2025 5.8125 4.5625 C3.9375 5.1875 3.9375 5.1875 1.8125 5.5625 C1.1525 4.9025 0.4925 4.2425 -0.1875 3.5625 C-1.6725 3.315 -1.6725 3.315 -3.1875 3.0625 C-6.1875 2.5625 -6.1875 2.5625 -8.1875 0.5625 C-4.98734144 -0.50421952 -3.30205706 -0.38595472 0 0 Z " fill="#017FC5" transform="translate(96.1875,10.4375)"/>
<path d="M0 0 C1.32 0 2.64 0 4 0 C4.66 0.66 5.32 1.32 6 2 C7.32392972 3.01241685 8.65599167 4.01439389 10 5 C9.67 5.66 9.34 6.32 9 7 C5.39703406 7.41176754 4.21597933 7.1535853 1.1875 5 C0.465625 4.34 -0.25625 3.68 -1 3 C-0.67 2.01 -0.34 1.02 0 0 Z " fill="#037FC9" transform="translate(100,101)"/>
<path d="M0 0 C0.33 0.99 0.66 1.98 1 3 C0.39285156 3.23460937 -0.21429688 3.46921875 -0.83984375 3.7109375 C-3.55910086 5.33364066 -4.22677782 6.77722268 -5.5625 9.625 C-5.98015625 10.511875 -6.3978125 11.39875 -6.828125 12.3125 C-8.36384127 15.83440931 -9.7247853 19.3757056 -11 23 C-11.66 23 -12.32 23 -13 23 C-7.58273931 4.76629328 -7.58273931 4.76629328 0 0 Z " fill="#2678A4" transform="translate(255,36)"/>
<path d="M0 0 C1.98 0.99 1.98 0.99 4 2 C2.68 1.67 1.36 1.34 0 1 C0 0.67 0 0.34 0 0 Z M1 2 C0.67 2.66 0.34 3.32 0 4 C-8.41870824 6.66592428 -8.41870824 6.66592428 -13 5 C-13.33 4.34 -13.66 3.68 -14 3 C-9.03926578 1.67713754 -4.08888488 1.91106803 1 2 Z " fill="#0280C7" transform="translate(133,108)"/>
<path d="M0 0 C2.76276177 0.52268466 5.3260876 1.10869587 8 2 C8 3.65 8 5.3 8 7 C5.36 6.34 2.72 5.68 0 5 C0 3.33333333 0 1.66666667 0 0 Z " fill="#197BB7" transform="translate(248,108)"/>
<path d="M0 0 C2.6057225 1.30286125 2.98723599 2.29004698 4 5 C4.01171875 7.7265625 4.01171875 7.7265625 3.6875 10.625 C3.58824219 11.58664063 3.48898438 12.54828125 3.38671875 13.5390625 C3 16 3 16 2 18 C1.01 18 0.02 18 -1 18 C-1 18.99 -1 19.98 -1 21 C-1.66 20.67 -2.32 20.34 -3 20 C-2.61585938 19.31035156 -2.23171875 18.62070313 -1.8359375 17.91015625 C1.2513185 11.89248346 2.67048168 8.14438571 0.61328125 1.58203125 C0.41089844 1.05996094 0.20851562 0.53789063 0 0 Z " fill="#1F77A9" transform="translate(219,95)"/>
<path d="M0 0 C3.10958122 2.97438204 3.93085032 4.3085032 4.375 8.75 C4.35724442 13.61503003 2.35586916 15.64413084 -1 19 C-1.33 18.34 -1.66 17.68 -2 17 C-1.525625 16.113125 -1.05125 15.22625 -0.5625 14.3125 C1.70192325 9.5119227 1.61038169 5.03244279 0 0 Z " fill="#D6F4FB" transform="translate(194,86)"/>
<path d="M0 0 C0.33 0 0.66 0 1 0 C1 2.97 1 5.94 1 9 C0.01 9.33 -0.98 9.66 -2 10 C-2 10.66 -2 11.32 -2 12 C-3.32 11.34 -4.64 10.68 -6 10 C-5.01 8.02 -4.02 6.04 -3 4 C-2.34 4 -1.68 4 -1 4 C-0.67 2.68 -0.34 1.36 0 0 Z " fill="#087CBA" transform="translate(245,55)"/>
<path d="M0 0 C2.92386699 1.33869613 5.65055861 2.78499531 8 5 C8 5.99 8 6.98 8 8 C6.68 7.34 5.36 6.68 4 6 C4 5.34 4 4.68 4 4 C0.17254549 2.25314692 -3.12442723 1.65113667 -7.3125 1.375 C-8.91544922 1.26285156 -8.91544922 1.26285156 -10.55078125 1.1484375 C-11.35902344 1.09945312 -12.16726562 1.05046875 -13 1 C-8.49281667 -1.60888765 -4.95054606 -1.26792126 0 0 Z " fill="#C1E9F6" transform="translate(129,40)"/>
<path d="M0 0 C0.9796875 -0.00257812 1.959375 -0.00515625 2.96875 -0.0078125 C5.5 0.125 5.5 0.125 7.5 1.125 C7.5 1.785 7.5 2.445 7.5 3.125 C5.37527424 3.17886629 3.25016348 3.21773071 1.125 3.25 C-0.65003906 3.28480469 -0.65003906 3.28480469 -2.4609375 3.3203125 C-5.5 3.125 -5.5 3.125 -7.5 1.125 C-4.89080172 -0.17959914 -2.91057385 -0.0076594 0 0 Z " fill="#037BCF" transform="translate(179.5,109.875)"/>
<path d="M0 0 C0.33 0 0.66 0 1 0 C1.42691034 8.44333791 1.63421641 14.75903687 -3 22 C-4.32 21.67 -5.64 21.34 -7 21 C-6.57847656 20.48953125 -6.15695313 19.9790625 -5.72265625 19.453125 C-0.94482345 13.11265983 -0.02658891 7.85702259 0 0 Z " fill="#C1E8F8" transform="translate(207,87)"/>
<path d="M0 0 C0.99 0.33 1.98 0.66 3 1 C2.66226563 1.6290625 2.32453125 2.258125 1.9765625 2.90625 C-0.80555028 8.24533348 -2.79807011 13.09961692 -4 19 C-4.33 19 -4.66 19 -5 19 C-5.02698189 17.37509046 -5.04638757 15.75005367 -5.0625 14.125 C-5.07410156 13.22007813 -5.08570312 12.31515625 -5.09765625 11.3828125 C-5 9 -5 9 -4 7 C-3.34 7 -2.68 7 -2 7 C-1.855625 6.030625 -1.71125 5.06125 -1.5625 4.0625 C-1 1 -1 1 0 0 Z " fill="#C6ECF8" transform="translate(91,47)"/>
<path d="M0 0 C1.32 0 2.64 0 4 0 C4.33 2.64 4.66 5.28 5 8 C6.65 6.35 8.3 4.7 10 3 C10.66 3.33 11.32 3.66 12 4 C11.09972412 5.03531726 10.17906965 6.05294165 9.25 7.0625 C8.73953125 7.63097656 8.2290625 8.19945312 7.703125 8.78515625 C6 10 6 10 3.796875 9.68359375 C2.90742187 9.34521484 2.90742187 9.34521484 2 9 C2 6.69 2 4.38 2 2 C1.34 2 0.68 2 0 2 C0 1.34 0 0.68 0 0 Z " fill="#1B77A9" transform="translate(2,33)"/>
<path d="M0 0 C0.33 0.66 0.66 1.32 1 2 C0.05125 1.9175 -0.8975 1.835 -1.875 1.75 C-8.56151392 1.73638185 -14.87546001 4.88858746 -20 9 C-19.42655063 6.13275314 -19.1385485 5.1385485 -17 3 C-16.34 3 -15.68 3 -15 3 C-14.67 2.34 -14.34 1.68 -14 1 C-9.31604754 -0.14242743 -4.78644729 -0.08252495 0 0 Z " fill="#1F78A9" transform="translate(126,38)"/>
<path d="M0 0 C3.28788824 3.11016455 5.83735988 6.01618925 8 10 C7.01 9.67 6.02 9.34 5 9 C4.01 9.33 3.02 9.66 2 10 C2 8.68 2 7.36 2 6 C1.01 5.67 0.02 5.34 -1 5 C-0.67 3.35 -0.34 1.7 0 0 Z " fill="#207FBE" transform="translate(147,41)"/>
<path d="M0 0 C0.33 0 0.66 0 1 0 C0.91253716 1.43861294 0.80434652 2.87597508 0.6875 4.3125 C0.62949219 5.11300781 0.57148438 5.91351563 0.51171875 6.73828125 C-0.10238193 9.45251251 -0.69962809 10.43903334 -3 12 C-5.26171875 12.07421875 -5.26171875 12.07421875 -7.6875 11.6875 C-8.49574219 11.56761719 -9.30398437 11.44773438 -10.13671875 11.32421875 C-10.75160156 11.21722656 -11.36648437 11.11023438 -12 11 C-12 10.67 -12 10.34 -12 10 C-9.03 10 -6.06 10 -3 10 C-2.87625 9.0925 -2.7525 8.185 -2.625 7.25 C-2.07890323 4.41029677 -1.42736197 2.47409409 0 0 Z " fill="#D5F6FB" transform="translate(221,125)"/>
<path d="M0 0 C0.97591583 3.38317487 0.85856655 5.5657338 0 9 C-0.66 9 -1.32 9 -2 9 C-2.33 12.3 -2.66 15.6 -3 19 C-4.32 19 -5.64 19 -7 19 C-4.94235079 12.54646385 -2.57616518 6.2638737 0 0 Z " fill="#C8EEF8" transform="translate(241,76)"/>
<path d="M0 0 C2.375 0.3125 2.375 0.3125 5 1 C7.23551759 4.35327639 7.17283528 4.90743657 6.625 8.6875 C6.51414063 9.49574219 6.40328125 10.30398437 6.2890625 11.13671875 C6.19367188 11.75160156 6.09828125 12.36648437 6 13 C5.34 12.67 4.68 12.34 4 12 C4 9.69 4 7.38 4 5 C3.01 5 2.02 5 1 5 C0.67 3.35 0.34 1.7 0 0 Z " fill="#047DCC" transform="translate(150,79)"/>
<path d="M0 0 C0.66 0.33 1.32 0.66 2 1 C1.67 3.97 1.34 6.94 1 10 C0.34 9.34 -0.32 8.68 -1 8 C-1.66 9.32 -2.32 10.64 -3 12 C-3.12375 11.030625 -3.2475 10.06125 -3.375 9.0625 C-3.58125 8.051875 -3.7875 7.04125 -4 6 C-4.66 5.67 -5.32 5.34 -6 5 C-6 4.34 -6 3.68 -6 3 C-3.525 3.495 -3.525 3.495 -1 4 C-0.67 2.68 -0.34 1.36 0 0 Z " fill="#0A7AB9" transform="translate(222,113)"/>
<path d="M0 0 C2.97 0.33 5.94 0.66 9 1 C9 1.33 9 1.66 9 2 C13.51617599 2.07654536 17.59085217 2.10228696 22 1 C17.83847186 4.76329578 14.32033852 4.42330818 8.9296875 4.3046875 C5.23939664 3.92089725 3.05953743 3.03969162 0 1 C0 0.67 0 0.34 0 0 Z " fill="#CBF1FB" transform="translate(111,104)"/>
<path d="M0 0 C8.25 0 16.5 0 25 0 C23.35 1.65 21.7 3.3 20 5 C20 3.68 20 2.36 20 1 C13.4 1 6.8 1 0 1 C0 0.67 0 0.34 0 0 Z " fill="#B6EEFE" transform="translate(76,39)"/>
<path d="M0 0 C0.33 0 0.66 0 1 0 C1.13277344 1.09699219 1.26554687 2.19398437 1.40234375 3.32421875 C1.58062985 4.77865801 1.7590208 6.23308442 1.9375 7.6875 C2.06801758 8.7693457 2.06801758 8.7693457 2.20117188 9.87304688 C2.66313805 13.62010584 3.19167679 17.30792911 4 21 C3.01 20.67 2.02 20.34 1 20 C1 19.34 1 18.68 1 18 C0.34 17.67 -0.32 17.34 -1 17 C-0.67 11.39 -0.34 5.78 0 0 Z " fill="#D8F4FC" transform="translate(85,70)"/>
<path d="M0 0 C2.625 0.375 2.625 0.375 5 1 C5 1.66 5 2.32 5 3 C4.01 3 3.02 3 2 3 C2.33 5.64 2.66 8.28 3 11 C-0.0916909 8.47043472 -0.90931332 5.77545388 -2 2 C-1.34 1.34 -0.68 0.68 0 0 Z " fill="#1478AF" transform="translate(199,41)"/>
<path d="M0 0 C1.32 0.33 2.64 0.66 4 1 C4 3.64 4 6.28 4 9 C3.01 9.33 2.02 9.66 1 10 C0.37542727 6.56484998 0 3.50935186 0 0 Z " fill="#017FCB" transform="translate(200,92)"/>
<path d="M0 0 C1.98 1.65 3.96 3.3 6 5 C5.0409375 5.556875 5.0409375 5.556875 4.0625 6.125 C1.36141928 8.58052793 1.31592995 10.44578805 1 14 C0.67 14 0.34 14 0 14 C0 9.38 0 4.76 0 0 Z " fill="#B5DCEC" transform="translate(160,66)"/>
<path d="M0 0 C1.4552777 2.9105554 0.63516661 4.95849052 0.0625 8.125 C-0.13214844 9.22070312 -0.32679688 10.31640625 -0.52734375 11.4453125 C-0.68332031 12.28835937 -0.83929688 13.13140625 -1 14 C-0.01 14.33 0.98 14.66 2 15 C2 15.66 2 16.32 2 17 C0.0625 16.1875 0.0625 16.1875 -2 15 C-3.19211438 11.42365687 -3.25926574 8.75935317 -3 5 C-1.5 2.0625 -1.5 2.0625 0 0 Z " fill="#B9E4F5" transform="translate(170,43)"/>
<path d="M0 0 C0.721875 0.144375 1.44375 0.28875 2.1875 0.4375 C1.445 1.159375 0.7025 1.88125 -0.0625 2.625 C-2.50540515 5.12342573 -4.6806047 7.67393202 -6.8125 10.4375 C-7.8125 7.4375 -7.8125 7.4375 -6.9921875 5.61328125 C-3.43596421 0.53448332 -3.43596421 0.53448332 0 0 Z " fill="#D5F3FA" transform="translate(253.8125,34.5625)"/>
<path d="M0 0 C3.3 0 6.6 0 10 0 C10 0.33 10 0.66 10 1 C7.03 1 4.06 1 1 1 C1.33 2.32 1.66 3.64 2 5 C4.31 5.33 6.62 5.66 9 6 C9 6.33 9 6.66 9 7 C6.03 7 3.06 7 0 7 C0 4.69 0 2.38 0 0 Z " fill="#1870A2" transform="translate(55,32)"/>
<path d="M0 0 C1.32 0.33 2.64 0.66 4 1 C5.25541557 4.76624671 4.37061958 6.37188934 3 10 C2.34 10 1.68 10 1 10 C0.67 6.7 0.34 3.4 0 0 Z " fill="#0481CC" transform="translate(69,17)"/>
<path d="M0 0 C0 3.69418201 -1.28179295 5.77836178 -3 9 C-3.99 8.34 -4.98 7.68 -6 7 C-5.67 5.02 -5.34 3.04 -5 1 C-3.35 0.67 -1.7 0.34 0 0 Z " fill="#E7F5FC" transform="translate(214,118)"/>
<path d="M0 0 C0 0.66 0 1.32 0 2 C-5.3679893 6.92065686 -8.86219846 7.13726541 -16 7 C-16 6.67 -16 6.34 -16 6 C-15.07767578 5.83564453 -15.07767578 5.83564453 -14.13671875 5.66796875 C-13.32847656 5.50941406 -12.52023438 5.35085937 -11.6875 5.1875 C-10.88699219 5.03667969 -10.08648437 4.88585937 -9.26171875 4.73046875 C-6.73617721 3.91479298 -5.74451996 2.94915573 -4 1 C-2 0 -2 0 0 0 Z " fill="#E1F7FC" transform="translate(143,110)"/>
<path d="M0 0 C1.29858939 0.56775536 2.58870441 1.15491663 3.875 1.75 C4.59429687 2.07484375 5.31359375 2.3996875 6.0546875 2.734375 C8.3370674 4.21929686 9.00375898 5.50415408 10 8 C6.01328937 6.63312778 3.11505367 4.84804907 0 2 C0 1.34 0 0.68 0 0 Z " fill="#DEF3FB" transform="translate(158,96)"/>
<path d="M0 0 C3.0916909 2.52956528 3.90931332 5.22454612 5 9 C4.34 9.66 3.68 10.32 3 11 C3 9.35 3 7.7 3 6 C1.68 6.33 0.36 6.66 -1 7 C-2 4 -2 4 -1.0625 1.8125 C-0.5365625 0.9153125 -0.5365625 0.9153125 0 0 Z " fill="#E1F6FB" transform="translate(195,42)"/>
<path d="M0 0 C0 0.66 0 1.32 0 2 C0.66 2.33 1.32 2.66 2 3 C-5.92 2.67 -13.84 2.34 -22 2 C-22 1.67 -22 1.34 -22 1 C-18.70837401 0.83252349 -15.41669287 0.66615639 -12.125 0.5 C-11.18785156 0.45230469 -10.25070313 0.40460937 -9.28515625 0.35546875 C-8.38925781 0.31035156 -7.49335937 0.26523437 -6.5703125 0.21875 C-5.74289551 0.17685547 -4.91547852 0.13496094 -4.06298828 0.09179688 C-2.70965236 0.03157743 -1.35467505 0 0 0 Z " fill="#0F76B2" transform="translate(101,36)"/>
<path d="M0 0 C2.66666667 0.66666667 5.33333333 1.33333333 8 2 C7.34 3.65 6.68 5.3 6 7 C4.68 6.34 3.36 5.68 2 5 C2.33 4.67 2.66 4.34 3 4 C2.01 3.67 1.02 3.34 0 3 C0 2.01 0 1.02 0 0 Z " fill="#1184CA" transform="translate(188,34)"/>
<path d="M0 0 C-1.98 0.33 -3.96 0.66 -6 1 C-6.33 2.65 -6.66 4.3 -7 6 C-8.32 5.67 -9.64 5.34 -11 5 C-10.3125 2.5625 -10.3125 2.5625 -9 0 C-5.70111637 -1.21537818 -3.30816138 -1.10272046 0 0 Z " fill="#0780C2" transform="translate(85,13)"/>
<path d="M0 0 C0.33 0.66 0.66 1.32 1 2 C0.01 2 -0.98 2 -2 2 C-2 2.66 -2 3.32 -2 4 C-2.99 4 -3.98 4 -5 4 C-4.67 4.99 -4.34 5.98 -4 7 C-6.64 7 -9.28 7 -12 7 C-11.360625 6.896875 -10.72125 6.79375 -10.0625 6.6875 C-9.381875 6.460625 -8.70125 6.23375 -8 6 C-7.67 5.01 -7.34 4.02 -7 3 C-3.4375 1.3125 -3.4375 1.3125 0 0 Z " fill="#1876AF" transform="translate(138,103)"/>
<path d="M0 0 C3.16130459 4.21507278 3.3367697 5.06071112 3 10 C1.68 10 0.36 10 -1 10 C-0.67 6.7 -0.34 3.4 0 0 Z " fill="#157AB3" transform="translate(207,40)"/>
<path d="M0 0 C4.29 1.65 8.58 3.3 13 5 C13 5.66 13 6.32 13 7 C7.59305933 6.56744475 4.24633878 5.41778487 0 2 C0 1.34 0 0.68 0 0 Z " fill="#DEFAFF" transform="translate(243,110)"/>
<path d="M0 0 C2.625 0.375 2.625 0.375 5 1 C4.01 1.66 3.02 2.32 2 3 C2 4.32 2 5.64 2 7 C0.68 6.34 -0.64 5.68 -2 5 C-2 2 -2 2 0 0 Z " fill="#017FCD" transform="translate(196,78)"/>
<path d="M0 0 C1.66171502 2.49257253 2.9387679 4.79516513 4.1875 7.5 C4.55230469 8.2734375 4.91710937 9.046875 5.29296875 9.84375 C6 12 6 12 5 15 C4.67 13.68 4.34 12.36 4 11 C3.34 11 2.68 11 2 11 C0.80712589 7.12315913 0 4.08378077 0 0 Z " fill="#2F81B0" transform="translate(219,69)"/>
<path d="M0 0 C0.66 0 1.32 0 2 0 C2.36923077 5.53846154 2.36923077 5.53846154 0.5 7.875 C-0.2425 8.431875 -0.2425 8.431875 -1 9 C-1.625 5.625 -1.625 5.625 -2 2 C-1.34 1.34 -0.68 0.68 0 0 Z " fill="#027BCC" transform="translate(150,50)"/>
<path d="M0 0 C1.5625 1.0625 1.5625 1.0625 3 3 C2.6875 6.6875 2.6875 6.6875 2 10 C-0.05619793 7.68677733 -0.95899829 6.44076838 -1.25 3.3125 C-1 1 -1 1 0 0 Z " fill="#0182C2" transform="translate(251,44)"/>
<path d="M0 0 C0.99 0 1.98 0 3 0 C2.34 3.3 1.68 6.6 1 10 C-2 6 -2 6 -3 3 C-2.01 3 -1.02 3 0 3 C0 2.01 0 1.02 0 0 Z " fill="#D5F9FE" transform="translate(156,44)"/>
<path d="M0 0 C0.99 0 1.98 0 3 0 C3.33 0.99 3.66 1.98 4 3 C5.95597184 4.39712274 7.95436401 5.73779907 10 7 C9.67 8.32 9.34 9.64 9 11 C8.46375 10.2575 7.9275 9.515 7.375 8.75 C4.84735261 5.82325039 2.28172632 4.01378661 -1 2 C-0.67 1.34 -0.34 0.68 0 0 Z " fill="#D8F4FA" transform="translate(142,35)"/>
<path d="M0 0 C6.27 0 12.54 0 19 0 C19 0.33 19 0.66 19 1 C17.46279297 1.09087891 17.46279297 1.09087891 15.89453125 1.18359375 C14.53384305 1.26805026 13.17316657 1.35269567 11.8125 1.4375 C11.13896484 1.47681641 10.46542969 1.51613281 9.77148438 1.55664062 C6.10300898 1.78927565 2.58305794 2.17207011 -1 3 C-0.67 2.01 -0.34 1.02 0 0 Z " fill="#D5F1FA" transform="translate(173,31)"/>
<path d="M0 0 C1.32 0 2.64 0 4 0 C4 4.62 4 9.24 4 14 C3.67 14 3.34 14 3 14 C2.92652344 12.82630859 2.92652344 12.82630859 2.8515625 11.62890625 C2.77679688 10.61699219 2.70203125 9.60507813 2.625 8.5625 C2.55539063 7.55316406 2.48578125 6.54382813 2.4140625 5.50390625 C2.27742187 4.67761719 2.14078125 3.85132812 2 3 C1.34 2.67 0.68 2.34 0 2 C0 1.34 0 0.68 0 0 Z " fill="#E7FCFD" transform="translate(239,96)"/>
<path d="M0 0 C-0.33 2.31 -0.66 4.62 -1 7 C-2.65 7 -4.3 7 -6 7 C-5.39816251 4.97954558 -4.72693904 2.97888961 -4 1 C-2 0 -2 0 0 0 Z " fill="#127DBC" transform="translate(241,69)"/>
<path d="M0 0 C1.98 0 3.96 0 6 0 C6.66666667 2.66666667 7.33333333 5.33333333 8 8 C6.85073734 7.04578192 5.70569459 6.08647955 4.5625 5.125 C3.92441406 4.59132813 3.28632812 4.05765625 2.62890625 3.5078125 C1 2 1 2 0 0 Z " fill="#E3F6FA" transform="translate(103,96)"/>
<path d="M0 0 C0.33 0.66 0.66 1.32 1 2 C0.00390625 4.3828125 0.00390625 4.3828125 -1.4375 7.125 C-1.91058594 8.03507812 -2.38367188 8.94515625 -2.87109375 9.8828125 C-3.24363281 10.58148438 -3.61617187 11.28015625 -4 12 C-5.11889609 8.59825551 -4.9845447 7.95657797 -3.6875 4.3125 C-2 1 -2 1 0 0 Z " fill="#207DB7" transform="translate(158,86)"/>
<path d="M0 0 C0.66 0 1.32 0 2 0 C4.37113483 4.96284034 6.43174347 9.45949887 7 15 C4.44772349 11.92849245 3.11223296 9.01474376 1.8125 5.25 C1.46832031 4.26515625 1.12414062 3.2803125 0.76953125 2.265625 C0.51558594 1.51796875 0.26164063 0.7703125 0 0 Z " fill="#2074A2" transform="translate(212,79)"/>
<path d="M0 0 C-1.11575573 3.34726719 -1.51344622 3.62079748 -4.4375 5.25 C-6.2009375 6.11625 -6.2009375 6.11625 -8 7 C-8.66 6.67 -9.32 6.34 -10 6 C-2.92307692 0 -2.92307692 0 0 0 Z " fill="#D5F1FC" transform="translate(116,41)"/>
<path d="M0 0 C0.66 0.33 1.32 0.66 2 1 C2 1.99 2 2.98 2 4 C2.66 4.66 3.32 5.32 4 6 C3.01 6.66 2.02 7.32 1 8 C-0.32 6.35 -1.64 4.7 -3 3 C-2.34 3 -1.68 3 -1 3 C-0.67 2.01 -0.34 1.02 0 0 Z " fill="#E3F7FB" transform="translate(47,32)"/>
<path d="M0 0 C0 0.66 0 1.32 0 2 C-1.97746603 2.73080266 -3.98072489 3.39421747 -6 4 C-6.66 3.67 -7.32 3.34 -8 3 C-8 2.01 -8 1.02 -8 0 C-4.71303767 -0.79953138 -3.28976808 -1.09658936 0 0 Z " fill="#077EC3" transform="translate(196,108)"/>
<path d="M0 0 C0.5534764 2.07553648 1 3.84365964 1 6 C-2.77545388 4.90931332 -5.47043472 4.0916909 -8 1 C-6.576875 1.309375 -6.576875 1.309375 -5.125 1.625 C-4.09375 1.74875 -3.0625 1.8725 -2 2 C-1.34 1.34 -0.68 0.68 0 0 Z " fill="#1677B0" transform="translate(175,70)"/>
<path d="M0 0 C0.66 0.33 1.32 0.66 2 1 C2 1.99 2 2.98 2 4 C1.34 4 0.68 4 0 4 C0 4.99 0 5.98 0 7 C-0.99 7.33 -1.98 7.66 -3 8 C-3.33 6.35 -3.66 4.7 -4 3 C-2.68 2.01 -1.36 1.02 0 0 Z " fill="#0380CA" transform="translate(101,45)"/>
<path d="M0 0 C1.40742022 2.81484045 0.66652164 4.56936113 0.0625 7.625 C-0.13214844 8.62789062 -0.32679687 9.63078125 -0.52734375 10.6640625 C-0.68332031 11.43492188 -0.83929688 12.20578125 -1 13 C-3 11 -3 11 -3.3125 8.1875 C-2.96840628 4.67774407 -2.01272399 2.85135899 0 0 Z " fill="#C5EBFA" transform="translate(78,18)"/>
<path d="M0 0 C2.02054804 1.64169528 4.02043058 3.30911778 6 5 C6 5.33 6 5.66 6 6 C4.02 6.33 2.04 6.66 0 7 C0 4.69 0 2.38 0 0 Z " fill="#DFF9FB" transform="translate(96,103)"/>
<path d="M0 0 C1.39195915 4.17587745 -0.17676781 6.13474776 -2 10 C-2.33 10 -2.66 10 -3 10 C-3.33 7.69 -3.66 5.38 -4 3 C-3.34 3 -2.68 3 -2 3 C-2 2.34 -2 1.68 -2 1 C-1.34 0.67 -0.68 0.34 0 0 Z " fill="#1D7BB0" transform="translate(245,64)"/>
<path d="M0 0 C3.93673644 1.31224548 6.22719294 2.91910327 9 6 C5.61976483 6 3.16531063 5.12544378 0 4 C0 2.68 0 1.36 0 0 Z " fill="#2779B1" transform="translate(138,35)"/>
<path d="M0 0 C1.65 0 3.3 0 5 0 C2.16569547 3.2542015 0.31392226 4.5206753 -4 5 C-4.33 4.34 -4.66 3.68 -5 3 C-3.35 3 -1.7 3 0 3 C0 2.01 0 1.02 0 0 Z " fill="#2479B3" transform="translate(196,107)"/>
<path d="M0 0 C1.65 0 3.3 0 5 0 C5.33 1.65 5.66 3.3 6 5 C6.66 5 7.32 5 8 5 C7.67 5.66 7.34 6.32 7 7 C5.83040013 6.02433888 4.66438823 5.044375 3.5 4.0625 C2.8503125 3.51722656 2.200625 2.97195312 1.53125 2.41015625 C1.0259375 1.94480469 0.520625 1.47945313 0 1 C0 0.67 0 0.34 0 0 Z " fill="#CAE9F7" transform="translate(244,96)"/>
<path d="M0 0 C2.64 1.98 5.28 3.96 8 6 C7.67 6.66 7.34 7.32 7 8 C4.24542282 7.62005832 3.17979426 7.1926367 1.25 5.125 C0 3 0 3 0 0 Z " fill="#C3EBFA" transform="translate(248,66)"/>
<path d="M0 0 C3.63 1.65 7.26 3.3 11 5 C7 6 7 6 3.8125 4.75 C1 3 1 3 0 0 Z " fill="#2879AE" transform="translate(172,61)"/>
<path d="M0 0 C1.98 0 3.96 0 6 0 C4.68 0.33 3.36 0.66 2 1 C2.33 1.99 2.66 2.98 3 4 C2.5625 6.1875 2.5625 6.1875 2 8 C1.34 8 0.68 8 0 8 C0 5.36 0 2.72 0 0 Z " fill="#2587CF" transform="translate(0,32)"/>
<path d="M0 0 C0.33 0.66 0.66 1.32 1 2 C-0.52941351 5.05882701 -2.94219546 5.68951234 -6 7 C-6.66 6.67 -7.32 6.34 -8 6 C-2.25 1.125 -2.25 1.125 0 0 Z " fill="#22729E" transform="translate(79,9)"/>
<path d="M0 0 C4.95 1.98 4.95 1.98 10 4 C10 4.66 10 5.32 10 6 C5.545 5.01 5.545 5.01 1 4 C0.67 2.68 0.34 1.36 0 0 Z " fill="#D2F5FD" transform="translate(171,74)"/>
<path d="M0 0 C3.63 1.65 7.26 3.3 11 5 C8 6 8 6 4.375 4.75 C1 3 1 3 0 0 Z " fill="#2277AD" transform="translate(184,67)"/>
<path d="M0 0 C2.31 0.66 4.62 1.32 7 2 C7 2.33 7 2.66 7 3 C5.37675914 3.22162329 3.751279 3.42689803 2.125 3.625 C0.76761719 3.79902344 0.76761719 3.79902344 -0.6171875 3.9765625 C-1.40351563 3.98429687 -2.18984375 3.99203125 -3 4 C-3.66 3.34 -4.32 2.68 -5 2 C-3.35 2 -1.7 2 0 2 C0 1.34 0 0.68 0 0 Z " fill="#2180BA" transform="translate(131,32)"/>
<path d="M0 0 C1.45792884 -0.05399736 2.91642712 -0.09279177 4.375 -0.125 C5.18710938 -0.14820312 5.99921875 -0.17140625 6.8359375 -0.1953125 C9 0 9 0 11 2 C10.34 2 9.68 2 9 2 C8.67 2.66 8.34 3.32 8 4 C5.36 3.01 2.72 2.02 0 1 C0 0.67 0 0.34 0 0 Z " fill="#E1F7FB" transform="translate(132,32)"/>
<path d="M0 0 C1.32 0.33 2.64 0.66 4 1 C4 1.99 4 2.98 4 4 C4.66 4.33 5.32 4.66 6 5 C4.02 5 2.04 5 0 5 C0 3.35 0 1.7 0 0 Z " fill="#067CC5" transform="translate(110,107)"/>
<path d="M0 0 C2.625 -0.1875 2.625 -0.1875 5 0 C5 0.99 5 1.98 5 3 C2.69 3 0.38 3 -2 3 C-1.34 2.01 -0.68 1.02 0 0 Z " fill="#E9F8FB" transform="translate(145,107)"/>
<path d="M0 0 C2.875 -0.125 2.875 -0.125 6 0 C6.66 0.66 7.32 1.32 8 2 C5.04335481 3.4783226 2.25770263 3.06032783 -1 3 C-0.67 2.01 -0.34 1.02 0 0 Z " fill="#0376B7" transform="translate(177,73)"/>
<path d="M0 0 C3.72617422 1.24205807 5.39291457 3.1110675 8 6 C8 6.66 8 7.32 8 8 C4.63820226 6.55922954 2.40843732 4.75249979 0 2 C0 1.34 0 0.68 0 0 Z " fill="#1A70A2" transform="translate(248,64)"/>
<path d="M0 0 C0.66 0.33 1.32 0.66 2 1 C0.625 3 0.625 3 -1 5 C-1.66 5 -2.32 5 -3 5 C-3 5.99 -3 6.98 -3 8 C-3.99 8 -4.98 8 -6 8 C-4.55746343 4.63408134 -2.66735273 2.48952921 0 0 Z " fill="#25739F" transform="translate(100,40)"/>
<path d="M0 0 C2.97 0.495 2.97 0.495 6 1 C3.78065836 4.32901247 2.65316671 4.75023244 -1 6 C-0.67 4.02 -0.34 2.04 0 0 Z " fill="#0384C9" transform="translate(198,37)"/>
<path d="M0 0 C1 2 1 2 0.44140625 3.9453125 C0.15136719 4.66460937 -0.13867188 5.38390625 -0.4375 6.125 C-0.72496094 6.84945312 -1.01242188 7.57390625 -1.30859375 8.3203125 C-1.53675781 8.87460938 -1.76492187 9.42890625 -2 10 C-2.66 9.67 -3.32 9.34 -4 9 C-2.94124926 5.59687262 -1.99097846 2.98646769 0 0 Z " fill="#2983AE" transform="translate(214,120)"/>
<path d="M0 0 C2.97 0.495 2.97 0.495 6 1 C6 2.65 6 4.3 6 6 C4.68 5.34 3.36 4.68 2 4 C2 3.34 2 2.68 2 2 C1.34 2 0.68 2 0 2 C0 1.34 0 0.68 0 0 Z " fill="#F1F8FD" transform="translate(250,99)"/>
<path d="M0 0 C0.99 0 1.98 0 3 0 C3.66 1.98 4.32 3.96 5 6 C4.01 6 3.02 6 2 6 C1.34 4.02 0.68 2.04 0 0 Z " fill="#1A7BAB" transform="translate(202,55)"/>
<path d="M0 0 C0.99 0.495 0.99 0.495 2 1 C2.625 4.0625 2.625 4.0625 3 7 C2.01 7.33 1.02 7.66 0 8 C0 5.36 0 2.72 0 0 Z " fill="#0776B1" transform="translate(158,47)"/>
<path d="M0 0 C3.24208567 0.35049575 4.61527704 0.56221181 6.8125 3.0625 C7.204375 3.701875 7.59625 4.34125 8 5 C5 5 5 5 3 4 C3 3.34 3 2.68 3 2 C2.01 1.67 1.02 1.34 0 1 C0 0.67 0 0.34 0 0 Z " fill="#D4F7FD" transform="translate(130,42)"/>
<path d="M0 0 C1.98 1.65 3.96 3.3 6 5 C3.92446352 5.5534764 2.15634036 6 0 6 C0 4.02 0 2.04 0 0 Z " fill="#DDF7FA" transform="translate(34,42)"/>
<path d="M0 0 C0.99 0 1.98 0 3 0 C3 0.66 3 1.32 3 2 C3.66 2.33 4.32 2.66 5 3 C4.01 3.33 3.02 3.66 2 4 C1.67 4.66 1.34 5.32 1 6 C0.34 5.67 -0.32 5.34 -1 5 C-0.67 3.35 -0.34 1.7 0 0 Z " fill="#F9F9F3" transform="translate(249,32)"/>
<path d="M0 0 C0.33 0.66 0.66 1.32 1 2 C1.66 2 2.32 2 3 2 C2.34 4.97 1.68 7.94 1 11 C0.67 11 0.34 11 0 11 C0 7.37 0 3.74 0 0 Z " fill="#DFFBFE" transform="translate(64,19)"/>
<path d="M0 0 C0.99 0 1.98 0 3 0 C2.67 1.32 2.34 2.64 2 4 C1.01 4 0.02 4 -1 4 C-1 4.99 -1 5.98 -1 7 C-1.66 6.67 -2.32 6.34 -3 6 C-2.01 4.02 -1.02 2.04 0 0 Z " fill="#247EAF" transform="translate(219,109)"/>
<path d="M0 0 C2.64 0.33 5.28 0.66 8 1 C6.25 2.5625 6.25 2.5625 4 4 C1.75 3.6875 1.75 3.6875 0 3 C0 2.01 0 1.02 0 0 Z " fill="#047ECB" transform="translate(163,106)"/>
<path d="M0 0 C0.33 0 0.66 0 1 0 C1 2.31 1 4.62 1 7 C-0.32 7 -1.64 7 -3 7 C-1.125 1.125 -1.125 1.125 0 0 Z " fill="#DCEDFC" transform="translate(237,88)"/>
<path d="M0 0 C0.99 0.33 1.98 0.66 3 1 C1.68 3.31 0.36 5.62 -1 8 C-1.33 8 -1.66 8 -2 8 C-1.125 1.125 -1.125 1.125 0 0 Z " fill="#D0F4FC" transform="translate(91,47)"/>
<path d="M0 0 C1.65 0.33 3.3 0.66 5 1 C5 2.98 5 4.96 5 7 C4.67 7 4.34 7 4 7 C4 5.35 4 3.7 4 2 C2.02 2.66 0.04 3.32 -2 4 C-1.34 2.68 -0.68 1.36 0 0 Z " fill="#0F7AB6" transform="translate(101,41)"/>
</svg>
