<?xml version="1.0" encoding="UTF-8"?>
<svg version="1.1" xmlns="http://www.w3.org/2000/svg" width="263" height="148">
<path d="M0 0 C86.79 0 173.58 0 263 0 C263 48.84 263 97.68 263 148 C176.21 148 89.42 148 0 148 C0 99.16 0 50.32 0 0 Z " fill="#FDFDFD" transform="translate(0,0)"/>
<path d="M0 0 C18.81 0 37.62 0 57 0 C57 20.13 57 40.26 57 61 C37.86 61 18.72 61 -1 61 C-1 58.69 -1 56.38 -1 54 C-0.38705078 53.94054199 0.22589844 53.88108398 0.85742188 53.81982422 C18.29467731 52.04936242 34.14243534 48.92497277 49 39 C49.495 38.01 49.495 38.01 50 37 C49.113125 36.71125 48.22625 36.4225 47.3125 36.125 C44 35 44 35 41.671875 33.64453125 C40.79015625 33.43183594 39.9084375 33.21914063 39 33 C36.69929711 34.43600919 34.93565255 35.78020007 32.9375 37.5625 C24.59447463 44.51322075 15.272852 49.19372443 4.25 49.0625 C3.26515625 49.05347656 2.2803125 49.04445312 1.265625 49.03515625 C0.51796875 49.02355469 -0.2296875 49.01195312 -1 49 C-1 47.35 -1 45.7 -1 44 C0.27230469 43.94005859 0.27230469 43.94005859 1.5703125 43.87890625 C14.61509493 42.71777726 23.74876821 36.69096114 33.05859375 27.60546875 C34.18211659 26.02422472 34.18211659 26.02422472 33.90625 24.015625 C31.1454211 17.87516073 22.67819257 13.86106611 16.83984375 11.06640625 C11.39818839 9.02297858 5.70934983 8.01188765 0 7 C0 4.69 0 2.38 0 0 Z " fill="#76B905" transform="translate(113,27)"/>
<path d="M0 0 C19.47 0 38.94 0 59 0 C59 20.46 59 40.92 59 62 C58.67 62 58.34 62 58 62 C58 41.87 58 21.74 58 1 C39.19 1 20.38 1 1 1 C1 3.31 1 5.62 1 8 C1.68964844 8.02578125 2.37929687 8.0515625 3.08984375 8.078125 C9.88455624 8.4882311 15.03638091 9.74524416 21 13 C21.85980469 13.46921875 22.71960938 13.9384375 23.60546875 14.421875 C28.30426538 17.11483378 32.68672411 19.65846608 36 24 C35.4778416 29.44377904 30.95175868 32.6969487 27 36 C13.68183035 45.18002408 13.68183035 45.18002408 4.75 45.0625 C3.85796875 45.05347656 2.9659375 45.04445312 2.046875 45.03515625 C1.37140625 45.02355469 0.6959375 45.01195312 0 45 C0 47.97 0 50.94 0 54 C-11.86853749 53.25821641 -18.78796832 48.5547709 -27 40 C-30.98235577 35.10854079 -33.19500349 31.32238835 -34 25 C-24.22527972 16.32887717 -13.20602798 9.49100316 0 8 C0 5.36 0 2.72 0 0 Z " fill="#E4F0D6" transform="translate(112,26)"/>
<path d="M0 0 C0 1.32 0 2.64 0 4 C0.64066406 4.03738281 1.28132813 4.07476562 1.94140625 4.11328125 C12.9242022 4.94803921 18.71492193 8.9818554 27 16 C23.61927508 23.42784274 17.63624006 27.75287238 10.375 31.12890625 C7.45130814 32.20124718 5.08114571 32.47402242 2 32 C1 31 1 31 0.90234375 27.40234375 C0.9090178 25.91403133 0.92097817 24.42573568 0.9375 22.9375 C0.94201172 22.17888672 0.94652344 21.42027344 0.95117188 20.63867188 C0.9629932 18.75908129 0.98092922 16.87953101 1 15 C3.35546875 15.30859375 3.35546875 15.30859375 6 16 C8.3125 19.0625 8.3125 19.0625 10 22 C13.78393339 20.88076108 13.78393339 20.88076108 16.1640625 17.921875 C16.43992188 17.28765625 16.71578125 16.6534375 17 16 C11.42262143 11.88155424 6.94490614 10.17683789 0 10 C0 8.35 0 6.7 0 5 C-10.28476243 6.66908818 -16.6682666 9.6682666 -24 17 C-23.01338847 24.43873775 -17.8835427 30.87646107 -12.26953125 35.4921875 C-8.45519431 38.0263253 -4.33121921 39.57105268 0 41 C0 42.32 0 43.64 0 45 C-11.78622106 44.45434162 -18.90280954 39.43513664 -27 31 C-30.98235577 26.10854079 -33.19500349 22.32238835 -34 16 C-24.4845431 7.55886888 -13.08013127 -0.24679493 0 0 Z " fill="#79BA10" transform="translate(112,35)"/>
<path d="M0 0 C14.575 -0.4125 14.575 -0.4125 20 3 C22.26081758 6.39122637 22.35268603 7.87377606 22.4375 11.875 C22.47746094 12.90367188 22.51742187 13.93234375 22.55859375 14.9921875 C21.78052364 19.18179576 20.46632539 20.55028426 17 23 C14.0227478 23.57724827 11.20520969 23.47564285 8.1875 23.3125 C4.1346875 23.1578125 4.1346875 23.1578125 0 23 C0 15.41 0 7.82 0 0 Z " fill="#0D0D0D" transform="translate(131,99)"/>
<path d="M0 0 C3.75005937 2.18026708 3.75005937 2.18026708 5.30859375 4.01953125 C5.30859375 5.33953125 5.30859375 6.65953125 5.30859375 8.01953125 C2.99609375 10.33203125 2.99609375 10.33203125 0.30859375 12.01953125 C-2.69140625 11.01953125 -2.69140625 11.01953125 -4.06640625 8.58203125 C-5.70252239 5.44938062 -5.70252239 5.44938062 -10.69140625 4.01953125 C-10.19640625 12.43453125 -10.19640625 12.43453125 -9.69140625 21.01953125 C-10.35140625 21.01953125 -11.01140625 21.01953125 -11.69140625 21.01953125 C-11.69140625 22.00953125 -11.69140625 22.99953125 -11.69140625 24.01953125 C-16.85684522 24.01953125 -19.21078937 22.95901988 -22.94140625 19.33203125 C-25.87780287 16.13855711 -28.35639006 13.21529641 -29.69140625 9.01953125 C-29.01747526 5.74615216 -27.55817593 4.91886834 -24.87890625 2.89453125 C-17.28886463 -1.57019911 -8.50418005 -3.09803947 0 0 Z " fill="#7CBC18" transform="translate(123.69140625,45.98046875)"/>
<path d="M0 0 C2.68125 -0.0825 5.3625 -0.165 8.125 -0.25 C8.95789551 -0.28641602 9.79079102 -0.32283203 10.64892578 -0.36035156 C16.06637996 -0.44049524 18.7965152 0.56911833 23 4 C24 5 24 5 24.11352539 6.76586914 C24.10828857 7.51473389 24.10305176 8.26359863 24.09765625 9.03515625 C24.09443359 9.84404297 24.09121094 10.65292969 24.08789062 11.48632812 C24.07951172 12.33646484 24.07113281 13.18660156 24.0625 14.0625 C24.05798828 14.91650391 24.05347656 15.77050781 24.04882812 16.65039062 C24.03700373 18.76695663 24.01906769 20.88348685 24 23 C21.69 23 19.38 23 17 23 C17 17.72 17 12.44 17 7 C13.7 6.34 10.4 5.68 7 5 C7 10.94 7 16.88 7 23 C4.69 23 2.38 23 0 23 C0 15.41 0 7.82 0 0 Z " fill="#1D1D1D" transform="translate(69,99)"/>
<path d="M0 0 C1.23556641 0.01740234 1.23556641 0.01740234 2.49609375 0.03515625 C3.32238281 0.04417969 4.14867187 0.05320312 5 0.0625 C5.63808594 0.07410156 6.27617187 0.08570312 6.93359375 0.09765625 C8.43944898 3.5534694 9.93727664 7.01270378 11.43359375 10.47265625 C11.86285156 11.4575 12.29210937 12.44234375 12.734375 13.45703125 C13.34345703 14.86855469 13.34345703 14.86855469 13.96484375 16.30859375 C14.34189453 17.17790527 14.71894531 18.0472168 15.10742188 18.94287109 C15.93359375 21.09765625 15.93359375 21.09765625 15.93359375 23.09765625 C13.62359375 23.09765625 11.31359375 23.09765625 8.93359375 23.09765625 C8.60359375 21.77765625 8.27359375 20.45765625 7.93359375 19.09765625 C3.97359375 19.09765625 0.01359375 19.09765625 -4.06640625 19.09765625 C-4.39640625 20.41765625 -4.72640625 21.73765625 -5.06640625 23.09765625 C-7.04640625 23.09765625 -9.02640625 23.09765625 -11.06640625 23.09765625 C-3.68424852 0.17411382 -3.68424852 0.17411382 0 0 Z " fill="#0F0F0F" transform="translate(177.06640625,98.90234375)"/>
<path d="M0 0 C0 1.65 0 3.3 0 5 C-0.96099609 5.23783203 -0.96099609 5.23783203 -1.94140625 5.48046875 C-7.95144511 7.10165658 -12.14920406 9.09827283 -17 13 C-15.65959673 18.95734787 -12.37221574 22.90925737 -8 27 C-5.28173208 28.53134378 -5.28173208 28.53134378 -3 29 C-3 29.66 -3 30.32 -3 31 C-2.34 31 -1.68 31 -1 31 C-1 32.32 -1 33.64 -1 35 C-8.19042714 34.70039887 -12.47500831 31.54364244 -17.4765625 26.515625 C-20.57743867 22.97720189 -22.96810482 19.22008998 -25 15 C-24.80860281 12.10004252 -24.07049732 11.07578819 -22.07421875 8.9296875 C-20.89279297 7.91261719 -20.89279297 7.91261719 -19.6875 6.875 C-18.90761719 6.19179688 -18.12773438 5.50859375 -17.32421875 4.8046875 C-11.97529622 0.65140648 -6.70664084 -0.19725414 0 0 Z " fill="#F7FBF3" transform="translate(112,40)"/>
<path d="M0 0 C2.31 0 4.62 0 7 0 C7.67220351 1.93558599 8.33758077 3.87354372 9 5.8125 C9.556875 7.43091797 9.556875 7.43091797 10.125 9.08203125 C11 12 11 12 11 15 C11.66 15 12.32 15 13 15 C13.12117188 14.41992188 13.24234375 13.83984375 13.3671875 13.2421875 C14.33735474 8.71971558 15.43397783 4.36249034 17 0 C19.31 0 21.62 0 24 0 C23.57847656 1.24136719 23.15695313 2.48273438 22.72265625 3.76171875 C22.16911049 5.40359178 21.61573396 7.04552188 21.0625 8.6875 C20.64581055 9.91243164 20.64581055 9.91243164 20.22070312 11.16210938 C18.90264127 15.0845344 17.65946414 18.90130514 17 23 C13.7 23 10.4 23 7 23 C6.31041662 20.93124985 5.62120282 18.86237595 4.93359375 16.79296875 C4.26524437 14.79351348 3.58997129 12.79636732 2.91015625 10.80078125 C2.54792969 9.73214844 2.18570313 8.66351563 1.8125 7.5625 C1.46832031 6.55316406 1.12414062 5.54382813 0.76953125 4.50390625 C0 2 0 2 0 0 Z " fill="#0F0F0F" transform="translate(94,99)"/>
<path d="M0 0 C1.98 0 3.96 0 6 0 C6 7.59 6 15.18 6 23 C4.02 23 2.04 23 0 23 C0 15.41 0 7.82 0 0 Z " fill="#0A0A0A" transform="translate(157,99)"/>
<path d="M0 0 C1.98 0 3.96 0 6 0 C6 7.59 6 15.18 6 23 C4.02 23 2.04 23 0 23 C0 15.41 0 7.82 0 0 Z " fill="#0C0C0C" transform="translate(121,99)"/>
<path d="M0 0 C6.2547138 -0.65153269 10.24197255 0.15282477 15.56640625 3.515625 C17 5 17 5 17 9 C14.6875 11.3125 14.6875 11.3125 12 13 C9 12 9 12 7.6875 9.625 C5.59627953 6.37199038 3.50963927 5.48184769 0 4 C0 2.68 0 1.36 0 0 Z " fill="#F8FBF5" transform="translate(112,45)"/>
<path d="M0 0 C0 5.28 0 10.56 0 16 C-5.41383565 13.83446574 -7.50381606 12.12490863 -10 7 C-10 4.1875 -10 4.1875 -9 2 C-6 0 -6 0 0 0 Z " fill="#F7FBF3" transform="translate(112,50)"/>
<path d="M0 0 C6 0 6 0 7.875 1.0625 C9.62409203 4.07482516 9.30401551 6.59502627 9 10 C8.01 11.485 8.01 11.485 7 13 C3.375 13.1875 3.375 13.1875 0 13 C0 8.71 0 4.42 0 0 Z " fill="#F6F6F6" transform="translate(138,104)"/>
<path d="M0 0 C0.66 0 1.32 0 2 0 C2.99 3.3 3.98 6.6 5 10 C2.69 10 0.38 10 -2 10 C-1.34 6.7 -0.68 3.4 0 0 Z " fill="#EAEAEA" transform="translate(178,104)"/>
<path d="M0 0 C1.32 0.66 2.64 1.32 4 2 C3.67 2.99 3.34 3.98 3 5 C1.68 4.67 0.36 4.34 -1 4 C-0.67 2.68 -0.34 1.36 0 0 Z " fill="#9B9B9B" transform="translate(195,118)"/>
</svg>
