<?xml version="1.0" encoding="UTF-8"?>
<svg version="1.1" xmlns="http://www.w3.org/2000/svg" width="189" height="148">
<path d="M0 0 C62.37 0 124.74 0 189 0 C189 48.84 189 97.68 189 148 C126.63 148 64.26 148 0 148 C0 99.16 0 50.32 0 0 Z " fill="#FBFBFB" transform="translate(0,0)"/>
<path d="M0 0 C1.98 0 3.96 0 6 0 C6.33 0.66 6.66 1.32 7 2 C7.66 1.34 8.32 0.68 9 0 C12.05563938 -0.57030597 14.94141876 -0.53881742 18 0 C21 2.4375 21 2.4375 23 5 C23.33 5.33 23.66 5.66 24 6 C24.53146616 11.19268572 24.85321507 15.57797489 22.125 20.125 C19.09054346 22.80246166 17.4585873 23.13785256 13.5 23.125 C12.7059375 23.12757812 11.911875 23.13015625 11.09375 23.1328125 C9 23 9 23 7 22 C6.67 26.29 6.34 30.58 6 35 C4.02 35 2.04 35 0 35 C0 23.45 0 11.9 0 0 Z " fill="#341A55" transform="translate(53,62)"/>
<path d="M0 0 C3.12578143 1.6720747 5.39281175 3.7856235 7 7 C7.35017306 12.3401391 7.46830225 15.66462219 4 20 C0.18742329 23.40733537 -2.62909544 23.50549424 -7.58984375 23.359375 C-10.99594517 22.85149602 -12.70351392 21.51178164 -15 19 C-17.68121076 14.97818385 -17.81344335 11.72763609 -17 7 C-13.03821809 -0.11353406 -7.59970818 -1.07070927 0 0 Z " fill="#381F58" transform="translate(116,62)"/>
<path d="M0 0 C1.98 0 3.96 0 6 0 C7.07421875 2.88085938 7.07421875 2.88085938 8.1484375 5.76171875 C9.07056396 8.18547317 10.0368942 10.5922355 11 13 C12.65 8.71 14.3 4.42 16 0 C17.98 0 19.96 0 22 0 C22.41572266 1.28197266 22.41572266 1.28197266 22.83984375 2.58984375 C23.20207031 3.69457031 23.56429688 4.79929687 23.9375 5.9375 C24.29714844 7.03964844 24.65679688 8.14179687 25.02734375 9.27734375 C25.73856668 11.88123475 25.73856668 11.88123475 27 13 C28.32 8.71 29.64 4.42 31 0 C32.98 0 34.96 0 37 0 C36.31231228 4.96229205 35.01455398 9.5568005 33.5 14.3125 C33.16162109 15.40401367 33.16162109 15.40401367 32.81640625 16.51757812 C31.13053784 21.86946216 31.13053784 21.86946216 30 23 C28.00041636 23.04080783 25.99954746 23.04254356 24 23 C23.32471777 21.42032193 22.66010306 19.83608097 22 18.25 C21.443125 16.92742187 21.443125 16.92742187 20.875 15.578125 C20 13 20 13 20 9 C19.34 9 18.68 9 18 9 C17.80664062 9.67546875 17.61328125 10.3509375 17.4140625 11.046875 C17.15367188 11.93890625 16.89328125 12.8309375 16.625 13.75 C16.24214844 15.07257813 16.24214844 15.07257813 15.8515625 16.421875 C15.0790066 18.76080572 14.16374324 20.83442562 13 23 C11.35 23 9.7 23 8 23 C0 3.38297872 0 3.38297872 0 0 Z " fill="#392059" transform="translate(0,62)"/>
<path d="M0 0 C3 2.0625 3 2.0625 5 5 C5.06944397 8.95830645 4.5699479 11.14507816 2.375 14.4375 C-0.9617771 16.63274809 -3.08548544 16.55921637 -7 16 C-9.4375 14.5 -9.4375 14.5 -11 12 C-11.80414661 7.95439643 -11.63828902 5.02126244 -9.4375 1.5 C-6.00863886 -0.61006839 -3.95779649 -0.62491523 0 0 Z " fill="#4F639C" transform="translate(184,66)"/>
<path d="M0 0 C5.33333333 0 10.66666667 0 16 0 C15.34 1.98 14.68 3.96 14 6 C11.69 6.33 9.38 6.66 7 7 C6.67 12.28 6.34 17.56 6 23 C4.02 23 2.04 23 0 23 C0 15.41 0 7.82 0 0 Z " fill="#3E265D" transform="translate(82,62)"/>
<path d="M0 0 C3.375 1.0625 3.375 1.0625 5.375 2.6875 C6.84481805 6.17831787 6.35913921 8.45398956 5.375 12.0625 C3.12082958 14.6506216 1.76979021 15.00492643 -1.625 15.5 C-4.625 15.0625 -4.625 15.0625 -7 13.4375 C-9.13823431 10.31238831 -9.3079669 8.78087535 -8.625 5.0625 C-5.92665364 1.21940065 -4.75860157 0.08204485 0 0 Z " fill="#7571A8" transform="translate(179.625,83.9375)"/>
<path d="M0 0 C2.5 2.125 2.5 2.125 4 5 C3.93689022 8.15548924 3.48864121 10.13769198 1.9375 12.875 C-1.23572732 14.71751909 -4.43758579 14.66053097 -8 14 C-10.6923481 11.81246717 -10.93936827 10.41576045 -11.4375 7 C-11 4 -11 4 -9.4375 1.625 C-6.04129157 -0.63913895 -3.99900698 -0.64269755 0 0 Z " fill="#284C87" transform="translate(182,49)"/>
<path d="M0 0 C2.375 1.0625 2.375 1.0625 4 3 C4.5 6.5 4.5 6.5 4 10 C1.76679398 12.66266871 0.3799883 12.95347082 -3.0625 13.375 C-6 13 -6 13 -7.875 11.9375 C-9.64273274 8.8930714 -9.36823916 6.4368988 -9 3 C-6.83831363 -0.7229043 -4.01644453 -0.49180953 0 0 Z " fill="#213E71" transform="translate(174,33)"/>
<path d="M0 0 C2.375 1.125 2.375 1.125 4 3 C4.62060815 6.64607289 4.47464453 8.30628876 2.375 11.375 C-0.67785921 13.46379841 -2.36968224 13.54068562 -6 13 C-7.875 11.9375 -7.875 11.9375 -9 10 C-9.63316583 4.09045226 -9.63316583 4.09045226 -7.875 1.0625 C-5.09808875 -0.51108304 -3.13770673 -0.38420899 0 0 Z " fill="#9A568F" transform="translate(174,102)"/>
<path d="M0 0 C2.4375 1.5625 2.4375 1.5625 4 4 C3.9375 7.625 3.9375 7.625 3 11 C-0.47042703 13.31361802 -1.91834173 13.51020728 -6 13 C-8.59814888 10.74827097 -8.95716454 9.34982295 -9.375 5.9375 C-9 3 -9 3 -7.875 1.125 C-5.07553259 -0.55468045 -3.20195936 -0.45742277 0 0 Z " fill="#F4F3F5" transform="translate(68,67)"/>
<path d="M0 0 C1.98 0 3.96 0 6 0 C6 7.59 6 15.18 6 23 C4.02 23 2.04 23 0 23 C0 15.41 0 7.82 0 0 Z " fill="#361E57" transform="translate(42,62)"/>
<path d="M0 0 C2.32528287 2.32528287 2.29511025 2.84665898 2.3125 6 C2.32925781 6.70125 2.34601563 7.4025 2.36328125 8.125 C2.18345703 9.053125 2.18345703 9.053125 2 10 C-1.46923881 12.31282587 -2.92205575 12.42478586 -7 12 C-8.875 10.9375 -8.875 10.9375 -10 9 C-10.4375 5.5 -10.4375 5.5 -10 2 C-7.00303875 -1.6885677 -4.34072074 -1.22672543 0 0 Z " fill="#F5F4F6" transform="translate(115,68)"/>
<path d="M0 0 C1.8125 1.0625 1.8125 1.0625 3 3 C3.375 6.5625 3.375 6.5625 3 10 C-0.47042703 12.31361802 -1.91834173 12.51020728 -6 12 C-7.9375 10.3125 -7.9375 10.3125 -9 8 C-8.86080792 5.14656236 -8.36922147 3.53537114 -6.75 1.1875 C-4.3314673 -0.45364719 -2.86449123 -0.42967368 0 0 Z " fill="#23518C" transform="translate(163,19)"/>
<path d="M0 0 C3.5625 0.4375 3.5625 0.4375 5.625 2.625 C6.5625 5.4375 6.5625 5.4375 5.8125 8.1875 C4.5625 10.4375 4.5625 10.4375 3.5625 11.4375 C0.1875 11.75 0.1875 11.75 -3.4375 11.4375 C-5.4375 9.75 -5.4375 9.75 -6.4375 7.4375 C-6.088995 2.55842996 -5.04290787 0.64182464 0 0 Z " fill="#B0367C" transform="translate(160.4375,116.5625)"/>
<path d="M0 0 C1.875 1.0625 1.875 1.0625 3 3 C2.66666667 9.33333333 2.66666667 9.33333333 0 12 C-2.80984248 12.36023622 -4.38241919 12.38332602 -6.8125 10.875 C-8.55198782 8.12844028 -8.39769128 6.18153026 -8 3 C-5.90534242 -0.30735407 -3.75951639 -0.56392746 0 0 Z " fill="#51659E" transform="translate(164,68)"/>
<path d="M0 0 C2.9375 0.75 2.9375 0.75 4.9375 2.75 C5.29773622 5.55984248 5.32082602 7.13241919 3.8125 9.5625 C1.03746189 11.32002414 -0.85179745 11.21822746 -4.0625 10.75 C-6 9.0625 -6 9.0625 -7.0625 6.75 C-6.9375 4.125 -6.9375 4.125 -6.0625 1.75 C-3.0625 -0.25 -3.0625 -0.25 0 0 Z " fill="#BF2D6E" transform="translate(147.0625,128.25)"/>
<path d="M0 0 C3.0625 0.3125 3.0625 0.3125 4.9375 1.5 C6.48479478 3.99286381 6.56655716 5.43217335 6.0625 8.3125 C4.4375 10.1875 4.4375 10.1875 2.0625 11.3125 C-3.36303191 10.88696809 -3.36303191 10.88696809 -4.9375 9.3125 C-5.125 5.875 -5.125 5.875 -4.9375 2.3125 C-2.9375 0.3125 -2.9375 0.3125 0 0 Z " fill="#366AA4" transform="translate(145.9375,8.6875)"/>
<path d="M0 0 C1.98 0 3.96 0 6 0 C5.67 0.99 5.34 1.98 5 3 C4.01 2.67 3.02 2.34 2 2 C2 12.23 2 22.46 2 33 C2.99 33 3.98 33 5 33 C5 29.04 5 25.08 5 21 C5.33 21 5.66 21 6 21 C6 25.62 6 30.24 6 35 C4.02 35 2.04 35 0 35 C0 23.45 0 11.9 0 0 Z " fill="#463265" transform="translate(53,62)"/>
<path d="M0 0 C1.8125 1.1875 1.8125 1.1875 3 3 C3.4334014 5.88934264 3.42525784 7.35092224 1.8125 9.8125 C-0.64907776 11.42525784 -2.11065736 11.4334014 -5 11 C-6.8125 9.8125 -6.8125 9.8125 -8 8 C-8.4334014 5.11065736 -8.42525784 3.64907776 -6.8125 1.1875 C-4.35092224 -0.42525784 -2.88934264 -0.4334014 0 0 Z " fill="#5693CD" transform="translate(132,2)"/>
<path d="M0 0 C1.8125 1.1875 1.8125 1.1875 3 3 C3.4375 5.5 3.4375 5.5 3 8 C1.3125 9.875 1.3125 9.875 -1 11 C-4.37036311 10.75925978 -5.58798021 10.41201979 -8 8 C-8.36487512 5.15397406 -8.40199375 3.6135694 -6.8125 1.1875 C-4.35092224 -0.42525784 -2.88934264 -0.4334014 0 0 Z " fill="#D55963" transform="translate(132,135)"/>
<path d="M0 0 C2.5 0.25 2.5 0.25 4.5 2.25 C4.75 5.25 4.75 5.25 4.5 8.25 C2.5 10.25 2.5 10.25 0.0625 10.5625 C-2.5 10.25 -2.5 10.25 -4.375 9.0625 C-5.5 7.25 -5.5 7.25 -5.3125 4.6875 C-4.22827241 1.43481722 -3.47807945 0.34780795 0 0 Z " fill="#E06B57" transform="translate(111.5,137.75)"/>
<path d="M0 0 C2.375 0.6875 2.375 0.6875 3.375 1.6875 C3.625 4.625 3.625 4.625 3.375 7.6875 C0.375 9.6875 0.375 9.6875 -2.1875 9.4375 C-4.625 8.6875 -4.625 8.6875 -6.625 6.6875 C-6.4375 4.1875 -6.4375 4.1875 -5.625 1.6875 C-2.625 -0.3125 -2.625 -0.3125 0 0 Z " fill="#3B9BB5" transform="translate(112.625,0.3125)"/>
<path d="M0 0 C2.5 0.25 2.5 0.25 4.5 2.25 C4.75 5.25 4.75 5.25 4.5 8.25 C2.5 10.25 2.5 10.25 0 10.5 C-2.5 10.25 -2.5 10.25 -4.5 8.25 C-4.75 5.25 -4.75 5.25 -4.5 2.25 C-2.5 0.25 -2.5 0.25 0 0 Z " fill="#7672A8" transform="translate(159.5,81.75)"/>
<path d="M0 0 C2.5 0.25 2.5 0.25 4.5 2.25 C4.75 5.25 4.75 5.25 4.5 8.25 C2.5 10.25 2.5 10.25 0 10.5 C-2.5 10.25 -2.5 10.25 -4.5 8.25 C-4.75 5.25 -4.75 5.25 -4.5 2.25 C-2.5 0.25 -2.5 0.25 0 0 Z " fill="#2D508B" transform="translate(159.5,55.75)"/>
<path d="M0 0 C2.5 0.25 2.5 0.25 4.5 2.25 C4.75 4.75 4.75 4.75 4.5 7.25 C2.5 9.25 2.5 9.25 0 9.5 C-2.5 9.25 -2.5 9.25 -4.5 7.25 C-4.75 4.75 -4.75 4.75 -4.5 2.25 C-2.5 0.25 -2.5 0.25 0 0 Z " fill="#F57F28" transform="translate(93.5,135.75)"/>
<path d="M0 0 C2.5 0.25 2.5 0.25 4.5 2.25 C4.75 4.75 4.75 4.75 4.5 7.25 C2.5 9.25 2.5 9.25 0 9.5 C-2.5 9.25 -2.5 9.25 -4.5 7.25 C-4.75 4.75 -4.75 4.75 -4.5 2.25 C-2.5 0.25 -2.5 0.25 0 0 Z " fill="#9A5790" transform="translate(154.5,93.75)"/>
<path d="M0 0 C2.5 0.25 2.5 0.25 4.5 2.25 C4.75 4.75 4.75 4.75 4.5 7.25 C2.5 9.25 2.5 9.25 0 9.5 C-2.5 9.25 -2.5 9.25 -4.5 7.25 C-4.75 4.75 -4.75 4.75 -4.5 2.25 C-2.5 0.25 -2.5 0.25 0 0 Z " fill="#264073" transform="translate(154.5,44.75)"/>
<path d="M0 0 C2.5 0.25 2.5 0.25 4.5 2.25 C4.75 4.75 4.75 4.75 4.5 7.25 C2.5 9.25 2.5 9.25 0 9.5 C-2.5 9.25 -2.5 9.25 -4.5 7.25 C-4.75 4.75 -4.75 4.75 -4.5 2.25 C-2.5 0.25 -2.5 0.25 0 0 Z " fill="#0EA496" transform="translate(93.5,2.75)"/>
<path d="M0 0 C2.5625 0.1875 2.5625 0.1875 4.5625 2.1875 C4.8125 4.6875 4.8125 4.6875 4.5625 7.1875 C3.9025 7.8475 3.2425 8.5075 2.5625 9.1875 C-0.73464793 8.85778521 -2.0601839 8.5648161 -4.4375 6.1875 C-3.71780303 0.28598485 -3.71780303 0.28598485 0 0 Z " fill="#1FB181" transform="translate(76.4375,9.8125)"/>
<path d="M0 0 C4.55555556 0.55555556 4.55555556 0.55555556 6 2 C6.1875 4.4375 6.1875 4.4375 6 7 C5.34 7.66 4.68 8.32 4 9 C-0.55555556 8.44444444 -0.55555556 8.44444444 -2 7 C-2.1875 4.5625 -2.1875 4.5625 -2 2 C-1.34 1.34 -0.68 0.68 0 0 Z " fill="#F89C30" transform="translate(75,129)"/>
<path d="M0 0 C2.5625 0.1875 2.5625 0.1875 4.5625 2.1875 C4.00694444 6.74305556 4.00694444 6.74305556 2.5625 8.1875 C0.125 8.375 0.125 8.375 -2.4375 8.1875 C-3.0975 7.5275 -3.7575 6.8675 -4.4375 6.1875 C-3.71780303 0.28598485 -3.71780303 0.28598485 0 0 Z " fill="#AF327A" transform="translate(146.4375,104.8125)"/>
<path d="M0 0 C2.5625 0.1875 2.5625 0.1875 4.5625 2.1875 C4.00694444 6.74305556 4.00694444 6.74305556 2.5625 8.1875 C0.125 8.375 0.125 8.375 -2.4375 8.1875 C-3.0975 7.5275 -3.7575 6.8675 -4.4375 6.1875 C-3.71780303 0.28598485 -3.71780303 0.28598485 0 0 Z " fill="#1F4D8A" transform="translate(146.4375,34.8125)"/>
<path d="M0 0 C3.125 0.375 3.125 0.375 6 1 C6.125 3.375 6.125 3.375 6 6 C5.34 6.66 4.68 7.32 4 8 C1.375 7.625 1.375 7.625 -1 7 C-1.625 4.625 -1.625 4.625 -2 2 C-1.34 1.34 -0.68 0.68 0 0 Z " fill="#BF2F70" transform="translate(134,113)"/>
<path d="M0 0 C4.70588235 0.70588235 4.70588235 0.70588235 6 2 C6.125 4.5 6.125 4.5 6 7 C5 8 5 8 2.5625 8.25 C1.716875 8.1675 0.87125 8.085 0 8 C-2 5 -2 5 -1.6875 2.875 C-1 1 -1 1 0 0 Z " fill="#3E6EA6" transform="translate(134,27)"/>
<path d="M0 0 C2.625 0.375 2.625 0.375 5 1 C5.625 3.375 5.625 3.375 6 6 C5.34 6.66 4.68 7.32 4 8 C1.375 7.625 1.375 7.625 -1 7 C-1.625 4.625 -1.625 4.625 -2 2 C-1.34 1.34 -0.68 0.68 0 0 Z " fill="#5568A0" transform="translate(144,70)"/>
<path d="M0 0 C1 1 1 1 1.125 3.5 C1 6 1 6 0 7 C-2.4375 7.1875 -2.4375 7.1875 -5 7 C-5.66 6.34 -6.32 5.68 -7 5 C-6.75 2.4375 -6.75 2.4375 -6 0 C-3.49749232 -1.25125384 -2.59701335 -0.83774624 0 0 Z " fill="#54BC6E" transform="translate(65,22)"/>
<path d="M0 0 C2.5 0.125 2.5 0.125 3.5 1.125 C3.625 3.625 3.625 3.625 3.5 6.125 C2.5 7.125 2.5 7.125 0.0625 7.3125 C-2.5 7.125 -2.5 7.125 -4.5 5.125 C-3.7519084 0.18759542 -3.7519084 0.18759542 0 0 Z " fill="#FEC124" transform="translate(62.5,118.875)"/>
<path d="M0 0 C2.625 0.375 2.625 0.375 5 1 C5.625 2.875 5.625 2.875 6 5 C4 7 4 7 1.375 7.125 C0.59125 7.08375 -0.1925 7.0425 -1 7 C-1.625 4.625 -1.625 4.625 -2 2 C-1.34 1.34 -0.68 0.68 0 0 Z " fill="#7B79AC" transform="translate(143,79)"/>
<path d="M0 0 C2.125 0.375 2.125 0.375 4 1 C4.625 3.375 4.625 3.375 5 6 C4.34 6.66 3.68 7.32 3 8 C1.68 8 0.36 8 -1 8 C-1.625 5.125 -1.625 5.125 -2 2 C-1.34 1.34 -0.68 0.68 0 0 Z " fill="#5492CD" transform="translate(123,22)"/>
<path d="M0 0 C1.65 0 3.3 0 5 0 C4.67 2.97 4.34 5.94 4 9 C2.68 9.33 1.36 9.66 0 10 C-1.125 6.25 -1.125 6.25 0 4 C0 2.68 0 1.36 0 0 Z " fill="#8E8EB8" transform="translate(132,72)"/>
<path d="M0 0 C1.67542976 0.28604898 3.34385343 0.61781233 5 1 C5.38218767 2.65614657 5.71395102 4.32457024 6 6 C5 7 5 7 2.5 7.125 C0 7 0 7 -1 6 C-1.125 3.5 -1.125 3.5 -1 1 C-0.67 0.67 -0.34 0.34 0 0 Z " fill="#D5545D" transform="translate(122,118)"/>
<path d="M0 0 C1.2065625 0.0309375 1.2065625 0.0309375 2.4375 0.0625 C3.5625 4.8125 3.5625 4.8125 2.4375 7.0625 C0.7875 7.0625 -0.8625 7.0625 -2.5625 7.0625 C-2.94383299 5.0710944 -3.27575582 3.06970923 -3.5625 1.0625 C-2.5625 0.0625 -2.5625 0.0625 0 0 Z " fill="#FED62D" transform="translate(51.5625,104.9375)"/>
<path d="M0 0 C1.9375 0.8125 1.9375 0.8125 4 2 C4.33 2.99 4.66 3.98 5 5 C4.67 5.66 4.34 6.32 4 7 C2.02 7 0.04 7 -2 7 C-2.33 5.35 -2.66 3.7 -3 2 C-2.01 1.34 -1.02 0.68 0 0 Z " fill="#2F528B" transform="translate(144,61)"/>
<path d="M0 0 C2.05078125 0.03255208 4.1015625 0.06510417 6.15234375 0.09765625 C5.49234375 2.07765625 4.83234375 4.05765625 4.15234375 6.09765625 C2.17234375 6.09765625 0.19234375 6.09765625 -1.84765625 6.09765625 C-2.22984392 4.44150968 -2.56160727 2.77308601 -2.84765625 1.09765625 C-1.84765625 0.09765625 -1.84765625 0.09765625 0 0 Z " fill="#402A5F" transform="translate(91.84765625,61.90234375)"/>
<path d="M0 0 C2.00720923 0.28674418 4.0085944 0.61866701 6 1 C5.67 2.65 5.34 4.3 5 6 C3.34385343 6.38218767 1.67542976 6.71395102 0 7 C-1 6 -1 6 -1.125 3.5 C-1 1 -1 1 0 0 Z " fill="#81C562" transform="translate(49,36)"/>
<path d="M0 0 C1.65 0.33 3.3 0.66 5 1 C5.625 2.875 5.625 2.875 6 5 C5.34 5.66 4.68 6.32 4 7 C2.68 7 1.36 7 0 7 C-1.125 2.25 -1.125 2.25 0 0 Z " fill="#E27361" transform="translate(109,120)"/>
<path d="M0 0 C2.625 0.375 2.625 0.375 5 1 C4.67 2.65 4.34 4.3 4 6 C2.35 6 0.7 6 -1 6 C-1.625 4.125 -1.625 4.125 -2 2 C-1.34 1.34 -0.68 0.68 0 0 Z " fill="#341F56" transform="translate(43,52)"/>
<path d="M0 0 C1.2065625 0.0309375 1.2065625 0.0309375 2.4375 0.0625 C3.0625 1.9375 3.0625 1.9375 3.4375 4.0625 C2.7775 4.7225 2.1175 5.3825 1.4375 6.0625 C0.1175 6.0625 -1.2025 6.0625 -2.5625 6.0625 C-2.94468767 4.40635343 -3.27645102 2.73792976 -3.5625 1.0625 C-2.5625 0.0625 -2.5625 0.0625 0 0 Z " fill="#274374" transform="translate(141.5625,53.9375)"/>
<path d="M0 0 C2.625 0.9375 2.625 0.9375 5 2 C4.6875 3.9375 4.6875 3.9375 4 6 C3.01 6.33 2.02 6.66 1 7 C0.01 6.34 -0.98 5.68 -2 5 C-2 3.68 -2 2.36 -2 1 C-1.34 0.67 -0.68 0.34 0 0 Z " fill="#48A0B9" transform="translate(110,21)"/>
<path d="M0 0 C1.65 0.33 3.3 0.66 5 1 C5.33 1.99 5.66 2.98 6 4 C5.67 4.66 5.34 5.32 5 6 C3.35 6 1.7 6 0 6 C-1.125 2.25 -1.125 2.25 0 0 Z " fill="#9B5890" transform="translate(139,88)"/>
<path d="M0 0 C1.32 0.66 2.64 1.32 4 2 C3.67 3.32 3.34 4.64 3 6 C1.35 5.67 -0.3 5.34 -2 5 C-1.125 1.125 -1.125 1.125 0 0 Z " fill="#AF2E79" transform="translate(135,95)"/>
<path d="M0 0 C2.475 0.495 2.475 0.495 5 1 C4.67 2.65 4.34 4.3 4 6 C2.68 5.67 1.36 5.34 0 5 C0 3.35 0 1.7 0 0 Z " fill="#F5832C" transform="translate(96,119)"/>
<path d="M0 0 C1.65 0.33 3.3 0.66 5 1 C4.67 2.32 4.34 3.64 4 5 C2.35 4.67 0.7 4.34 -1 4 C-0.67 2.68 -0.34 1.36 0 0 Z " fill="#154485" transform="translate(134,47)"/>
<path d="M0 0 C1.98 0.495 1.98 0.495 4 1 C3.67 2.65 3.34 4.3 3 6 C1.68 5.67 0.36 5.34 -1 5 C-0.67 3.35 -0.34 1.7 0 0 Z " fill="#0DA294" transform="translate(97,23)"/>
<path d="M0 0 C1.32 0.66 2.64 1.32 4 2 C3.67 3.32 3.34 4.64 3 6 C1.68 6 0.36 6 -1 6 C-1.042721 4.33388095 -1.04063832 2.66617115 -1 1 C-0.67 0.67 -0.34 0.34 0 0 Z " fill="#32B68B" transform="translate(85,28)"/>
<path d="M0 0 C1.98 0.495 1.98 0.495 4 1 C3.67 2.32 3.34 3.64 3 5 C1.68 5 0.36 5 -1 5 C-0.67 3.35 -0.34 1.7 0 0 Z " fill="#F89A2A" transform="translate(85,114)"/>
<path d="M0 0 C1.98 0.495 1.98 0.495 4 1 C4 2.32 4 3.64 4 5 C2.35 4.67 0.7 4.34 -1 4 C-0.67 2.68 -0.34 1.36 0 0 Z " fill="#BF3170" transform="translate(127,101)"/>
<path d="M0 0 C1.32 0 2.64 0 4 0 C3.67 1.65 3.34 3.3 3 5 C1.68 4.67 0.36 4.34 -1 4 C-0.67 2.68 -0.34 1.36 0 0 Z " fill="#4070A7" transform="translate(127,42)"/>
<path d="M0 0 C1.98 0.495 1.98 0.495 4 1 C3.67 2.32 3.34 3.64 3 5 C1.68 4.67 0.36 4.34 -1 4 C-0.67 2.68 -0.34 1.36 0 0 Z " fill="#5B96CE" transform="translate(119,38)"/>
<path d="M0 0 C2.0625 0.4375 2.0625 0.4375 4 1 C4 1.99 4 2.98 4 4 C2.68 4.33 1.36 4.66 0 5 C-0.5625 3.0625 -0.5625 3.0625 -1 1 C-0.67 0.67 -0.34 0.34 0 0 Z " fill="#E27867" transform="translate(110,106)"/>
<path d="M0 0 C1.65 0 3.3 0 5 0 C5 1.32 5 2.64 5 4 C3.35 4 1.7 4 0 4 C0 2.68 0 1.36 0 0 Z " fill="#5A6DA3" transform="translate(132,72)"/>
<path d="M0 0 C1.98 0 3.96 0 6 0 C6 1.32 6 2.64 6 4 C2 4 2 4 0 3 C0 2.01 0 1.02 0 0 Z " fill="#4F396A" transform="translate(31,62)"/>
<path d="M0 0 C1.98 0.495 1.98 0.495 4 1 C4 1.99 4 2.98 4 4 C2.35 4 0.7 4 -1 4 C-0.67 2.68 -0.34 1.36 0 0 Z " fill="#D5545F" transform="translate(119,105)"/>
<path d="M0 0 C0.99 0.33 1.98 0.66 3 1 C2.67 1.33 2.34 1.66 2 2 C3.65 2.33 5.3 2.66 7 3 C7 3.33 7 3.66 7 4 C4.36 4.33 1.72 4.66 -1 5 C-0.67 3.35 -0.34 1.7 0 0 Z " fill="#2C0D4F" transform="translate(61,63)"/>
<path d="M0 0 C0.99 0 1.98 0 3 0 C3 1.65 3 3.3 3 5 C1.68 4.67 0.36 4.34 -1 4 C-0.67 2.68 -0.34 1.36 0 0 Z " fill="#4DA2BA" transform="translate(110,37)"/>
</svg>
